<svg xmlns="http://www.w3.org/2000/svg" viewBox="0 0 459.1 478.9"><path fill="#86bd43" d="M459.1 302.6v5a7.3 7.3 0 0 0-.8 1.8c-1.7 11.2-8.4 18-18.6 22-6.8 2.6-13.6 5.2-20.3 8.1-19.1 8.1-31.3 22.3-35.2 42.7-2 10.7-2.1 21.8-3.1 32.7-1.1 12.8-12.6 24.3-25.3 23.4-10.3-.8-20.4-3.8-30.5-6.2-24.6-5.7-45.3.7-61.6 20.1-4.8 5.7-9.5 11.6-14.3 17.3-10.5 12.5-30.8 12.5-41.3 0-5.1-6.1-10-12.5-15.3-18.5-15.1-17.1-34.1-23.6-56.5-19.5-9.4 1.7-18.7 4.3-28.1 6.4-14 3.1-29.4-7.6-31-21.8-1-8.3-1.6-16.6-2-24.9-.8-18.8-8.4-34.5-23.9-44.9-10-6.7-21.9-10.9-33.1-15.6-17.2-7.2-23.3-25.2-13.4-41l10.7-16.9q21.2-33.4 0-66.9L4.9 189.1c-9.8-15.7-4.1-33.6 12.9-40.7 7-2.9 14.1-5.8 21.1-8.8 17.5-7.6 29.8-20.3 34.2-38.9 2.7-11.4 3-23.3 4-35.1 1.5-17.3 17.1-28.7 33.8-24.3 7.5 1.9 15 4.1 22.6 5.9 18.9 4.5 36.7 1.7 51.5-11 8.7-7.5 15.8-17 23.3-25.9 11.3-13.5 31.3-13.8 42.6-.2L262.1 24c17.6 22.1 40 29.6 67.3 21.8 5.9-1.7 11.9-3 17.8-4.5 14.9-3.8 30.1 5.4 32.7 20.4a151.9 151.9 0 0 1 2 23.8 59.5 59.5 0 0 0 37.2 54.3l21.2 8.5c16.7 6.8 22.7 25 13.2 40.3-3.8 6.1-7.7 12.1-11.4 18.1-13.6 22.1-13.4 44 .5 66 6.1 9.7 13.8 18.4 16.5 29.9zm-263.4-52.5c-15.5-12-30-22.8-44.1-34.2a35.6 35.6 0 0 0-26.3-8.3c-16.6 1.2-30.8 20-28 36.3 1.6 9 7 15.5 12.2 22.4 22.1 29 43.8 58.3 66 87.2 11.4 14.8 26.9 20.3 45.1 16.1 12.3-2.8 21.1-10.4 27.8-21.1 35.6-57.3 71.5-114.5 107-171.8a37.2 37.2 0 0 0 4.9-15.9c1.7-19.8-17.1-36.3-36.7-33.4-10.1 1.5-16.8 7.6-23.5 14.6-33.5 34.6-67.3 68.9-101 103.4a36.8 36.8 0 0 0-3.4 4.7z"/></svg>
