<svg xmlns="http://www.w3.org/2000/svg" viewBox="0 0 75 75"><g fill="#fecc00"><path d="M22.66 12.16c-.25 0-.5-.13-.64-.36-.08-.12-.1-.26-.1-.4-.02-.24.1-.5.34-.63l.28-.16c.36-.2.82-.05 1.02.3.06.13.1.25.1.37 0 .27-.15.53-.4.66l-.2.12c-.13.08-.27.12-.4.12zm-2.02 4.24c-.4 0-.75-.34-.75-.75 0-.3 0-.6.02-.9.05-.4.42-.7.83-.65.4.04.67.37.67.75v.08c-.03.23-.04.47-.04.7 0 .42-.34.76-.76.76z"/><path d="M21 14.26c-.1 0-.2 0-.28-.05-.3-.1-.48-.37-.48-.7 0-.07 0-.16.05-.24.07-.25.2-.5.3-.72.2-.36.66-.5 1.02-.3.25.14.4.4.4.66 0 .12-.04.24-.1.35-.1.17-.17.35-.24.53-.12.3-.4.48-.7.48z"/><path d="M21.4 13.4c-.1 0-.25-.04-.4-.12-.2-.15-.33-.4-.33-.63 0-.14.04-.28.12-.4.2-.3.4-.56.6-.78.3-.3.76-.3 1.06-.02.3.3.3.76.02 1.06-.15.18-.3.35-.42.56-.15.22-.4.35-.64.35z"/><path d="M20.7 15.38h-.1c-.4-.06-.7-.44-.64-.85.05-.35.12-.7.23-1.03.1-.4.53-.62.93-.5.3.1.52.4.52.73 0 .07 0 .15-.04.22l-.1.36-.07.45c-.05.37-.37.64-.74.64zm2.82-3.65c-.3 0-.6-.2-.7-.5-.04-.08-.05-.16-.05-.25 0-.3.2-.6.5-.7l.25.7-.2-.73.18-.06c.4-.15.8.06.94.46.03.07.04.15.04.23 0 .3-.2.6-.52.7 0 0-.18.07-.2.1l-.24.02zm2.28-.33h-.15c-.4 0-.75-.35-.75-.76s.34-.75.75-.75c.06-.03.1-.03.15-.03.4 0 .76.33.76.75 0 .2-.08.4-.23.54-.14.14-.32.22-.52.22zm-3.84 1.3c-.2 0-.38-.07-.53-.22-.27-.27-.3-.7-.05-1l.06-.06v-.02c.03 0 .04-.03.06-.04l.05-.04c.33-.23.8-.17 1.04.15.17.25.2.58.03.84-.05.1-.1.16-.17.2l-.05.06c-.13.1-.3.15-.45.15z"/><path d="M24.72 11.44c-.37 0-.73-.27-.78-.65v-.14c0-.36.23-.67.6-.72l.16-.02c.4-.04.82.26.86.67v.1c0 .35-.24.66-.62.7h-.1l-.12.03zm7.65 12.52h-8.73c-.24 0-.46-.1-.6-.3-1.96-2.6-3.07-5.4-3.15-7.83 0-.2.06-.4.2-.55.15-.15.35-.22.55-.22 3.23.1 7 2 10.1 5.1.8.8 1.54 1.68 2.2 2.62.18.23.2.53.07.78s-.38.4-.66.4zm-8.35-1.5h6.82c-.37-.43-.75-.85-1.15-1.25-2.53-2.5-5.6-4.2-8.24-4.56.26 1.83 1.16 3.9 2.55 5.84z"/><path d="M42.64 23.96H32.36c-.24 0-.47-.1-.6-.3-.63-.88-1.32-1.7-2.07-2.45-2.8-2.77-6.3-4.55-9.1-4.63-.4 0-.7-.33-.73-.73-.05-1.82.48-3.34 1.54-4.4 1.03-1.02 2.47-1.56 4.17-1.56 3.28 0 7.14 1.9 10.34 5.1.56.56 1.1 1.16 1.6 1.78.5-.62 1.02-1.22 1.57-1.77 3.2-3.2 7.06-5.1 10.34-5.1 1.7 0 3.15.52 4.17 1.54 1.05 1.06 1.6 2.58 1.54 4.4 0 .4-.32.72-.72.73-2.82.08-6.3 1.86-9.1 4.65-.74.76-1.43 1.58-2.05 2.45-.14.2-.37.32-.6.32zm-9.9-1.5h9.52c.6-.82 1.28-1.6 2-2.3 2.85-2.87 6.3-4.7 9.34-5.05-.08-1.07-.45-1.97-1.08-2.6-.73-.73-1.8-1.12-3.1-1.12-2.85 0-6.4 1.8-9.28 4.67-.73.73-1.4 1.54-2.03 2.4-.26.4-.92.4-1.2 0-.62-.86-1.3-1.67-2.03-2.4-2.88-2.88-6.43-4.67-9.27-4.67-1.3 0-2.4.4-3.12 1.12-.63.62-1 1.52-1.08 2.6 3.05.34 6.5 2.2 9.35 5.05.7.7 1.4 1.5 2 2.32z"/><path d="M52.35 12.16c-.14 0-.28-.04-.4-.12l-.17-.1-.04-.02c-.33-.2-.46-.66-.27-1 .2-.36.63-.5 1-.3l.1.06h.03l.05.04c.27.1.46.38.46.7 0 .4-.3.74-.73.74zm2 4.24c-.4 0-.74-.35-.74-.76 0-.25 0-.48-.02-.7v-.1c0-.37.28-.7.67-.74.4-.04.78.25.83.66.03.3.04.6.04.9 0 .4-.33.73-.74.73z"/><path d="M54 14.26c-.3 0-.58-.18-.7-.5-.06-.17-.14-.34-.23-.5-.06-.12-.1-.25-.1-.37 0-.28.15-.54.4-.68.37-.2.82-.06 1.02.3l.3.72c.04.1.05.18.05.26 0 .32-.18.6-.5.72-.07.03-.16.04-.25.04z"/><path d="M53.6 13.4c-.27 0-.5-.13-.66-.35-.13-.2-.27-.38-.42-.54-.3-.3-.28-.75.02-1.04.3-.3.77-.28 1.06.02.23.22.43.47.62.77.08.13.12.27.12.4 0 .25-.13.5-.35.64-.15.07-.3.1-.4.1z"/><path d="M54.3 15.38c-.37 0-.7-.27-.74-.64l-.08-.43-.1-.34c-.13-.4.1-.8.48-.94.4-.12.82.1.95.5.1.27.18.55.23.85.03.08.05.18.05.28 0 .42-.32.73-.76.75zm-2.83-3.65c-.1 0-.17-.02-.26-.05l-.07-.04c-.32-.1-.55-.42-.55-.75 0-.1 0-.16.03-.23.14-.4.5-.62.9-.5l.2.08c.3.12.5.42.5.73 0 .07-.02.16-.05.25-.12.3-.38.48-.67.48zm-2.27-.33c-.2 0-.4-.1-.53-.22-.15-.14-.23-.34-.23-.54 0-.4.3-.73.7-.76h.22c.4 0 .74.34.74.76 0 .4-.33.74-.74.75h-.15zm3.88 1.32c-.18 0-.36-.07-.5-.18-.1-.07-.16-.15-.2-.24l-.03-.05v-.02c-.13-.3-.04-.66.22-.87.3-.22.7-.2.96.03.1.06.16.15.2.26.17.32.07.68-.2.9-.14.1-.3.15-.45.15z"/><path d="M50.36 11.44h-.2l-.1-.02c-.38-.05-.66-.37-.66-.75v-.08c.05-.43.4-.73.83-.68l.24.02c.37.05.64.37.64.74v.1c-.04.37-.36.64-.73.64zM41.48 22.7c-.4 0-.75-.35-.75-.76 0-1.78-1.45-3.23-3.23-3.23s-3.23 1.47-3.23 3.25c0 .4-.33.75-.75.75s-.75-.35-.75-.76c0-2.6 2.12-4.73 4.73-4.73 2.6 0 4.73 2.14 4.73 4.75 0 .4-.34.75-.75.75z"/><path d="M44.03 34.93H30.97c-.42 0-.75-.34-.75-.75V23.22c0-.42.33-.75.75-.75h13.06c.42 0 .75.33.75.75v10.96c0 .4-.33.75-.75.75zm-12.3-1.5h11.55v-9.46H31.72v9.46z"/><path d="M63.94 34.93H11.06c-.42 0-.75-.34-.75-.75V23.22c0-.42.35-.75.77-.75h52.88c.42 0 .75.33.75.75v10.96c0 .4-.34.75-.76.75zm-52.13-1.5h51.4v-9.46H11.8v9.46z"/><path d="M51.36 23.96h-8.72c-.3 0-.54-.15-.67-.4s-.1-.55.06-.78c.67-.94 1.42-1.83 2.22-2.63 3.1-3.1 6.86-5 10.08-5.1.2 0 .4.08.56.23.12.14.2.34.2.55-.08 2.44-1.2 5.23-3.15 7.83-.14.2-.37.3-.6.3zm-7.2-1.5h6.82c1.4-1.93 2.3-4 2.55-5.83-2.64.37-5.7 2.07-8.22 4.58-.37.4-.76.84-1.13 1.28zM58.84 65.13H16.16c-.42 0-.75-.34-.75-.75v-30.2c0-.4.35-.75.77-.75h42.68c.4 0 .75.34.75.75v30.2c0 .4-.34.75-.76.75zm-41.93-1.5h41.2v-28.7H16.9v28.7z"/><path d="M59.22 45.43c-.2 0-.4-.07-.53-.22l-.4-.35c-.15-.15-.2-.34-.2-.53 0-.2.05-.38.2-.53.3-.3.77-.3 1.06 0l.38.37c.08.08.13.17.17.27v.14c.05.22-.02.46-.2.63-.1.1-.2.16-.34.2h-.02c-.03.04-.08.04-.13.04z"/><path d="M60.85 45.7c-.9 0-1.77-.3-2.47-.86-.18-.14-.3-.36-.3-.6V34.2c0-.4.35-.75.76-.75h1.02c.2 0 .4.08.53.22l4.24 4.25c.93.94 2.56.94 3.5 0 .3-.3.77-.3 1.06 0 .3.3.3.77 0 1.06l-5.56 5.58c-.75.74-1.74 1.15-2.8 1.15zm-1.26-1.85c.92.55 2.2.4 2.97-.37l3.37-3.38c-.9-.1-1.72-.5-2.36-1.14l-4-4v8.9zM41.58 65.13h-8.16c-.42 0-.75-.34-.75-.75v-30.2c0-.4.33-.75.75-.75h8.16c.42 0 .75.34.75.75v30.2c0 .4-.33.75-.75.75zm-7.4-1.5h6.65v-28.7h-6.66v28.7zM14.16 45.7c-1.06 0-2.05-.42-2.8-1.17L5.8 38.98c-.3-.3-.3-.78 0-1.07.28-.3.76-.3 1.05 0 .94.95 2.57.95 3.5 0l4.26-4.24c.16-.14.35-.22.55-.22h1.02c.4 0 .75.33.75.75v10.06c0 .23-.1.45-.28.6-.7.54-1.57.84-2.46.84zm-5.1-5.6l3.36 3.38c.78.77 2.05.92 3 .38v-8.9l-4 4c-.65.65-1.48 1.04-2.37 1.14z"/></g></svg>
