<svg xmlns="http://www.w3.org/2000/svg" viewBox="0 0 48 48"><g fill="none" stroke="#fecc00"><circle cx="24" cy="24" r="12.24"/><path d="M20.8 28.7h.65c.2.14.4.28.6.4.08.06.18.13.27.16h6.18c.5 0 .94-.3.94-.78 0-.5-.04-.97-.53-.97H29c.5 0 .85-.42.85-.9 0-.5.05-.9-.44-.9h.16c.5 0 .75-.4.75-.9s.07-.9-.4-.9h.16c.48 0 .55-.4.55-.9s-.25-.85-.74-.85h-4.6c.1-.14.65-2.16.6-2.54s-.48-2-.48-2c-.7-.64-1.33-.6-1.84.15v2.15l-1.88 3.14-.9.6m-1.33 6.16h-.7c-.73 0-1.33-.6-1.33-1.34v-4.18c0-.73.6-1.33 1.33-1.33h.7c.73 0 1.33.6 1.33 1.33v4.18c0 .74-.6 1.33-1.33 1.33z"/></g></svg>
