<svg xmlns="http://www.w3.org/2000/svg" width="49.1" height="64" viewBox="0 0 49.1 64"><path fill="#414141" d="M49 24.5A24.5 24.5 0 0 0 0 24v1.3C.3 41.3 18.3 58 24.5 64 42 50 47 36.8 48.5 29.8V29c0-.7.2-1.3.3-2a15.7 15.7 0 0 0 .3-2.5z"/><path fill="#82c140" fill-rule="evenodd" d="M40.5 26.5a16 16 0 0 1-1 4.6H22.2l3.4-4.5z"/><path fill="#fff" fill-rule="evenodd" d="M22 19h4.8l-3.4 4.5h-15A16 16 0 0 1 9.7 19H22zm15.8 15a16 16 0 0 1-29.3-7.5H21l-5 7v.7h21.8z"/><path fill="#82c140" fill-rule="evenodd" d="M24.5 9a16 16 0 0 1 16 14.5H28l5-7V16H11.3a16 16 0 0 1 13.2-7z"/></svg>
