<svg xmlns="http://www.w3.org/2000/svg" viewBox="0 0 390.1 68.2"><path fill="#83c140" fill-rule="evenodd" d="M67.9 37.3a33.9 33.9 0 0 1-2.4 9.7H29.2l7.2-9.7z"/><path fill="#00753a" fill-rule="evenodd" d="M28.5 21.1h10.2l-7.2 9.8H0a33.9 33.9 0 0 1 2.4-9.8h26.1zm70.2 24.2h19v5.3H87.6v-1.3l19-25.7h-19v-5.3h30.1v1.3l-19 25.7zm104.7-5.4v10.7h-6.3V18.3h20c6.7 0 11.5 4.2 11.5 11s-4.9 10.5-11.5 10.5zm0-15.9v10.2h14.1a4.6 4.6 0 0 0 4.8-4.8c0-3.1-1.9-5.5-5.1-5.5zM167 24v7.4h18V37h-18v8h24.2v5.6h-30.5V18.3h29.5v5.6zm-37.1-.2v6.3c4.9 0 9.8-.1 14.7 0s7.4 1.6 9.4 4.7 1.6 5.4 1.2 8.1a9.7 9.7 0 0 1-5.9 6.7 20.3 20.3 0 0 1-6.7 1.1h-19v-.2c-.1-10.6 0-21.3-.1-31.9v-.2h29.3v5.4h-22.9zm.1 11.9c-.1 3.1 0 6.2 0 9.3 5-.1 10.1.1 15.1-.1 2.3 0 4.6-1.9 4.4-4.3s-2.4-4.7-5-4.8c-4.8-.2-9.7 0-14.5-.1zm-68 18A34.1 34.1 0 0 1 0 37.3h26.7L15.9 51.9v1.6H62z"/><path fill="#83c140" fill-rule="evenodd" d="M34 0a34.1 34.1 0 0 1 34 30.9H41.2L52 16.2v-1.5H5.9A34.1 34.1 0 0 1 34 0zM245.3 45.3h19v5.3h-30.1v-1.3l19-25.7h-19v-5.3h30.1v1.3l-19 25.7zm92-18.3l-20.4 23.6h-6.3V18.3h6.1v23.5L337 18.3h6.3v32.3h-6.1V27zm46.8.8L371 44.5l-13.1-16.8c.2 5.1.2 10.3.2 15.4v7.4h-6.2V18.3h6.6L371.1 35 384 18.2h6.2v32.4h-6.3v-7.4c0-5.1 0-10.3.2-15.4zm-105.2 15l-3.7 7.8h-6.8l15.7-32.3h6.5l15.8 32.3h-6.8l-3.6-7.8zm53.9-30.2h-12.1v5.6h12.1v-5.6zm-51.3 24.7h11.8l-5.9-12.4z"/></svg>
