<svg xmlns="http://www.w3.org/2000/svg"><symbol id="badge" viewBox="0 0 48 48"><title>badge</title><path d="M37 13.5v-4l-3.5-2-2-3.5h-4L24 2l-3.5 2h-4l-2 3.5-3.5 2v4L9 17l2 3.5v4l3.5 2 2 3.5h4l3.5 2 3.5-2h4l2-3.5 3.5-2v-4l2-3.5zm-2 6.4v3.4L32 25l-1.7 3h-3.4L24 29.7 21 28h-3.4l-1.7-3-2.9-1.7v-3.4L11.3 17l1.7-2.9v-3.5l2.9-1.7L17.6 6H21l3-1.7L26.9 6h3.4L32 8.9l3 1.7V14l1.7 3z" fill="#fecc00"/><path d="M29 42.6l-4.2-4.2h-.1a1.1 1.1 0 0 0-1.4 0h-.1L19 42.6V30h-2v15a1 1 0 0 0 1 1 1 1 0 0 0 .8-.4l5.2-5.2 5.2 5.2a1 1 0 0 0 .8.4 1 1 0 0 0 1-1V30h-2z" fill="#84c240"/></symbol><symbol id="bank" viewBox="0 0 48 48"><title>bank</title><path d="M45 15.4L24 4 3 15.4v2h42zm-37.6 0L24 6.9l16.5 8.6z" fill="#84c240"/><path d="M8 34.4a1 1 0 0 0 0 2h8a1 1 0 0 0 0-2h-1v-13h1a1 1 0 0 0 0-2H8a1 1 0 0 0 0 2h1v13zm3-13h2v13h-2zM32 34.4a1 1 0 0 0 0 2h8a1 1 0 0 0 0-2h-1v-13h1a1 1 0 0 0 0-2h-8a1 1 0 0 0 0 2h1v13zm3-13h2v13h-2z" fill="#fecc00"/><path d="M4 39.4a1 1 0 0 0 1 1h38a1 1 0 0 0 0-2H5a1 1 0 0 0-1 1zM46 42.4H2a1 1 0 0 0 0 2h44a1 1 0 0 0 0-2z" fill="#84c240"/><path d="M20 34.4a1 1 0 0 0 0 2h8a1 1 0 0 0 0-2h-1v-13h1a1 1 0 0 0 0-2h-8a1 1 0 0 0 0 2h1v13zm3-13h2v13h-2z" fill="#fecc00"/></symbol><symbol id="businessman--hover" viewBox="0 0 160 240"><path d="M24.2 230c11.2 6 44.5-14 58.5-22 14-8.2 50.5-32.4 39.2-39.3S83 181.3 68 190.3s-60 31-44 39.7z" opacity=".2"/><path fill="#262626" d="M102.5 171.2c-1 2.4-4.7 12.2-5 14-.3 1.5-.6 5.2 3.4 5 4 0 9.7-5.4 11-9.6l2.8-9h1s2.2-4.5 2-6.7c-.4-2.4-3.3-4-3.6-4.3-.3-.4-11.7 10.5-11.7 10.5z"/><path d="M116.2 162.2c-.2 2-.5 3-1.2 5.6-.8 3-3.3 13-6.2 16.5s-8 6.4-11 4l-.4-.3c.3 1.2 1.3 2.2 3.4 2 4 0 9.8-5.3 11-9.5l3-9h1s2-4.5 1.8-6.7c0-1-.7-2-1.4-2.6z" opacity=".5"/><path fill="#FBD7C7" d="M43 93.2h-1.3s-1.5-1.5-5.7-2-9 .4-10.2 1.8c-1.4 1.3-.6 5-.3 5.8.3.7 1 2.2 3 2 1.8-.3 6.7-.5 9 0 2 .8 3.3.7 5 .2 1.7-.5 3.2-1.3 3.2-1.3s-.3-2.4-1-3.8S43 93 43 93z"/><path fill="#262626" d="M32.7 210.8s-3 3-4.6 3.6-6.7.2-8 1-1.8 2-1.8 2-1 .4-1 1c.6 1.4 4 3 8.5 3.7 4.4 1 8.3 1 8.3 1l.3 1.3s10.4 2.2 11.2 1.7c.8-.5.4-3 .4-3l-.5-.2s1-1.4 1.4-2.7c.3-1.3.3-2.3.3-2.3l-14.6-7z"/><path d="M24.2 220c-2.5-.6-5-2-6-2.7-.4 0-1 .6-1 1 .6 1.5 4 3 8.5 3.8 4.4 1 8.3 1 8.3 1l.3 1.3s10.4 2.2 11.2 1.7c.8-.5.4-3 .4-3l-.5-.2c-1 0-7.8-1.3-9.6-1.3-2 0-8.6-.7-11.8-1.5z" opacity=".5"/><path fill="#656565" d="M53 112s-3 6.2-4.7 15.8c-1.8 9.5-6.2 29-7.5 39.7-1.3 10.7-2.3 28.8-4.3 33.7-2 4.8-5.3 10.8-6 11-.5.4 3.7.6 6.3 3.3s9.5 6.3 9.5 6.3 3.4-7.6 5.4-15S60 171 63 159s4.5-18.8 9-27 6.4-19.3 6.4-19.3L53 112z"/><path d="M53 112s-3 6.2-4.7 15.8c-1.8 9.5-6.2 29-7.5 39.7-1.3 10.7-2.3 28.8-4.3 33.7-2 4.8-5.3 10.8-6 11-.5.4 3.7.6 6.3 3.3s9.5 6.3 9.5 6.3 3.4-7.6 5.4-15S60 171 63 159s4.5-18.8 9-27 6.4-19.3 6.4-19.3L53 112z" opacity=".3"/><path fill="#656565" d="M62.2 113.6c.2 2.4 5.5 14.3 8.3 18 3.3 4 6 8.7 8.7 13.6 2.8 5 3.6 7 8 10.2 4.6 3.3 10.6 8.3 12 11.5 1.6 3 2.2 6.5 4.5 7s10.3-3.5 12.2-7.4c1.8-4 1-4-.4-6.4-1.4-2.5-4.6-9.8-9.2-14.5-3.3-3.3-5.5-5-7-10-1.3-5-.5-11.7-2.7-15-2-3-7.2-12-7.2-12l-27.3 5z"/><path d="M62.2 113.6c.2 2.4 5.5 14.3 8.3 18 3.3 4 6 8.7 8.7 13.6 2.8 5 3.6 7 8 10.2 4.6 3.3 10.6 8.3 12 11.5 1.6 3 2.2 6.5 4.5 7s10.3-3.5 12.2-7.4c1.8-4 1-4-.4-6.4-1.4-2.5-4.6-9.8-9.2-14.5-3.3-3.3-5.5-5-7-10-1.3-5-.5-11.7-2.7-15-2-3-7.2-12-7.2-12l-27.3 5z" opacity=".1"/><path fill="#FFF" d="M55.4 45.5c2.4.2 11.6-1 14 .3 2.6 1.2 2 5.2 2 5.2S57.5 64.5 56.8 73.5s.3 28.3.3 28.3-8-15.3-7.7-25.7c.5-17.5 5.8-30.5 5.8-30.5z"/><path fill="#656565" d="M58.6 48c-2.8 3.3-7.6 10-8 24.2s6 23.5 7.5 26.2 4.7 26.2 4.5 28c-.2 2-12.7-1-13.5-3.2-1-2 2-9.7 2-21.2s-3.4-33.8-2.4-41.4c1-7.6-.3-11 2.7-15.4 3-4.5 7.3 2.8 7.3 2.8z"/><path d="M58.6 48c-2.8 3.3-7.6 10-8 24.2s6 23.5 7.5 26.2 4.7 26.2 4.5 28c-.2 2-12.7-1-13.5-3.2-1-2 2-9.7 2-21.2s-3.4-33.8-2.4-41.4c1-7.6-.3-11 2.7-15.4 3-4.5 7.3 2.8 7.3 2.8z" opacity=".1"/><path fill="#656565" d="M69.5 45.8s2 2.3-1.6 6c-3.6 3.5-9.3 7-11.8 18.4s-.2 25.3 1.3 30.2c1.5 5 6 23.3 7.2 26 1 3 4 6 10.5 5.7 6.6-.3 21.8-6 23.3-9.4 1.5-3.4-1-6-2.6-9-1.8-2.7-7.8-20.5-8-23-.2-2.4.6-6.6.6-9 0-3-.4-8.4-.5-12 0-3.6-.2-7.8-3-11.6-3-3.8-9.6-9-11.6-10.4s-4-1.8-4-1.8z"/><path d="M52.7 60l3-2.8 1 .5 1 4.4 1.8-1.3-2 2.6-1-5-.7-.4-3.4 3M57 88.7c-.2-2.8-.8-9.2 1-15.2 2.3-7 5-9.3 5-9.3v-2.5l5-2.2s.4-3.4 2-5.5c1.8-2.4 3.7-4.6 3.7-4.6l-3.3 5c-1.2 2-1.4 5.8-1.4 5.8L63.5 62l1 2.5s-4.6 4-6.5 12c-1.3 5.7-1 12.2-1 12.2z" opacity=".2"/><path fill="#CC291F" d="M55 61v-3l.7-.5h1l.7 3.3-.7 1s-1.6 8.6-1.7 14 1.4 18 1.4 18h-1S50 83.3 51 75s4-14 4-14z"/><path fill="#FBD7C7" d="M53.8 26c-4 2.7-4 10.5-4 15.7 0 5.2.7 9.5 1.5 10s2.4.5 2.4.5 1.3 3 1.4 5c.2 1.2 8-2 11.2-5.2s3.3-4.6 3.3-4.6 4.4-8 3.7-14.4-8.5-15-19.4-7z"/><path fill="#762C07" d="M50.5 29c-.6 1 1.6 1 4.6 5.5 3.2 4.7 7 2.6 8 2.6.2 2.6 2.3 2.2 4.3 4.5 0 0 .7-2.6 2-2.6 1.5-.2 1 4.2 1 4.2s.3 1.8 1.3 2 4.8-9 2.8-15c-3-9.5-17-13-24-1.2z"/><path fill="#FFF" d="M42 92.4l21-5 8.3 11-25.8 4s-3.3-1.4-4-3.5c-.5-2-1.2-6.3.4-6.6z"/><path fill="#656565" d="M43 91.5l25.4-6 10 13.2s-28.8 4.6-31 4.7c-2.4 0-4-1.5-4.8-4-.7-2.4-1.5-7.5.4-8z"/></symbol><symbol id="businessman" viewBox="0 0 80 240"><path d="M59.7 230C77 220.6 64 213 48 205.6 30 197 23.6 195 7.3 204c-14 7.5-1.6 14.8 14.6 22.4C40.5 235 47.5 237 59.7 230z" opacity=".2"/><path fill="#262626" d="M19 201.7c-3.4 2.5-6.8 4-9.8 5.6-3 1.6-4.5 3-4 4.5.2 1.5 3 3.2 7.5 3 4.6-.2 12-4.4 13.4-4.5 1.5 0 1.2.8 2.2.8 1 0 6.4-1 7-1.6.6-.7 0-5.7 0-5.7l-16.2-2z"/><path d="M35 209.4c.4-.4.4-1.8.3-3-1.3 1-3.5 1.8-5.7 2-2.6 0-5.7.5-9.3 2.8s-16 4.2-14.6-1.4c-.6.7-1 1.4-.7 2 .3 1.6 3 3.3 7.6 3s12-4.3 13.4-4.4c1.4 0 1 .8 2 .8s6.6-1 7-1.8z" opacity=".5"/><path fill="#656565" d="M21.2 123c-1 6.7-1.3 30-.4 40.4.8 10.6.7 26 0 31.2-.7 4-2.6 6-2 7.4.4 1.5 5 4.6 10 5.2s7.3-.2 8-2.2c.6-2 2.8-23.5 3.5-37 .6-12 1.7-45 1.7-45H21.2z"/><path d="M21.2 123c-1 6.7-1.3 30-.4 40.4.8 10.6.7 26 0 31.2-.7 4-2.6 6-2 7.4.4 1.5 5 4.6 10 5.2s7.3-.2 8-2.2c.6-2 2.8-23.5 3.5-37 .6-12 1.7-45 1.7-45H21.2z" opacity=".3"/><path fill="#262626" d="M50 213.8c-.8 2.3-4.3 8-5 9.4-.8 1.4-2.3 3.3-1.3 4.7s5.7 3.2 10.4 1c4.8-2.3 5.6-7.8 5.6-7.8h.8s1-2.3 1-4c0-1.5-.3-2.5-.3-2.5l-11-1z"/><path d="M59.6 221.3h.8s1-2.3 1-4c0-1.5-.3-2.5-.3-2.5v.6c-.3 1.3-2.6 8.3-4 10-3.3 4.4-12.5 5.4-13.4.3-.3.8-.4 1.6 0 2.2 1 1.4 5.8 3.2 10.5 1s5.6-7.7 5.6-7.7z" opacity=".5"/><path fill="#656565" d="M33 124c0 4.2 4.5 9.2 5.8 15.3 1.3 6 5.3 36.3 6.3 45.2 1.6 13 3 31.7 3.3 32 .4 0 3.7-2 7-.3 3 1.7 6.7 1 7.8.2s.7-9.4.3-14.6-2-43.6-1.8-48.8c0-5.2 1.8-19.3 1.4-22.6-.5-3.4-2.4-7.3-2.4-7.3L33 124z"/><path d="M33 124c0 4.2 4.5 9.2 5.8 15.3 1.3 6 5.3 36.3 6.3 45.2 1.6 13 3 31.7 3.3 32 .4 0 3.7-2 7-.3 3 1.7 6.7 1 7.8.2s.7-9.4.3-14.6-2-43.6-1.8-48.8c0-5.2 1.8-19.3 1.4-22.6-.5-3.4-2.4-7.3-2.4-7.3L33 124z" opacity=".1"/><path fill="#656565" d="M23 76.6c-2.6 4-5.2 10.3-6.7 14.5-1.5 4.3-5.4 11.8-5.7 12.8-.2 1 0 4.6 3.4 5.7s5.2 1.8 5.8 1c.5-1 4.2-5 4.2-5l-1-29z"/><path d="M23 76.6c-2.6 4-5.2 10.3-6.7 14.5-1.5 4.3-5.4 11.8-5.7 12.8-.2 1 0 4.6 3.4 5.7s5.2 1.8 5.8 1c.5-1 4.2-5 4.2-5l-1-29z" opacity=".1"/><path fill="#FFF" d="M35.7 48.8C33.7 50.4 25.5 62 25 76.5s3.3 21 3.3 21 11-29 17-35.5 5.5-11.5 5.5-11.5-3.8-2.6-8-3c-4-.2-7 1.3-7 1.3z"/><path d="M35.4 58.8l2.3 6.4L44 61l-6.7 6-2-8H34l-3.8 4.3v-3.8l.3 2L34 58l1.4.8z" opacity=".2"/><path fill="#CC291F" d="M32.5 63.5v-3.8l1.4-1.6 1.4.8 1 2.7-2.3 2.3-2 20.3c0 2.2-3 13-3 13s-5-12.5-4.7-12.7 8-21 8-21z"/><path fill="#FBD7C7" d="M68.7 132c-.3 1-.2 2-2 3.3-1.7 1.3-3 3.6-3.5 5.2-.4 1.6-1.7 3.5-2 4.7s1 2 2 1c1-.7 2.8-4.4 3.8-4.7 1-.3 1.3 3 1.4 4 0 1-1.5 3-2.2 4-.8 1 0 2 1 1.6s6-2.8 7-7.8c1.4-5 .8-12 .8-12l-6.3 1z"/><path fill="#FFF" d="M66.5 131.3v2s3.7 1 6.8.6 3.8-1 3.8-1l-.2-3-10.3 1.3z"/><path fill="#656565" d="M39.3 48c-2 .3-9.2-2-13.2 4s-4.6 12.7-4.8 18.4C21 76 20 113.4 20 120s0 9.4 3 10.3c3.4 1 6-2 6-3.8l-.3-30.7s-5-12-1.7-25.8 8.5-18.4 8.5-18.4l4-3.5h-.2z"/><path fill="#656565" d="M49.6 49.6l6.2 5c2.2 2 12 10.6 13 11.8 1 1.2 2 2.4 2 5.7 0 3.3.5 8.5 1.8 12 4 10.6 4.3 15.2 4.6 19.8.3 4.6 1 26.6 1 26.6s-1.4 1.2-6.5 1.8c-5.2.6-6.4 0-6.4 0S63.8 118 63 112.9c-1.3-7.8-5-16-5-16s-.6 3.4-.3 5.5 4 19.3 5 22 1.6 6.2 1.6 6.2-4.2 6.6-15.6 6c-11.4-.3-18.2-4-19.6-11-1.3-7-1.6-24.4.2-34.2S39 65.7 44.2 60s5.4-10.4 5.4-10.4z"/><path d="M29.6 95.8s3.5-9 9-16.5c3.7-5.2 7.7-8.6 7.7-8.6l-.3-3.4 4-1.5L52.7 52l.5.6-1.6 14-4.6 1 1 3.6s-5.4 4.7-9 9.2c-4 5-9.2 15.4-9.2 15.4z" opacity=".2"/><path fill="#FBD7C7" d="M33.8 28c-3.8 2.7-4 10.2-4 15.3s.8 9.3 1.6 9.7c.8.4 2.4.6 2.4.6s0 5 1 5c1.3.4 8-2.7 11-6 3-3 3.5-3.7 3.5-3.7s4.3-8 3.6-14.2-8.6-14.6-19.2-7z"/><path fill="#762C07" d="M30.6 31c-.6 1 1.5.8 4.5 5.4 3.2 4.6 6.7 2.6 7.7 2.6.3 2.5 2.4 2 4.3 4.3 0 0 .7-2.5 2-2.6s1 4.2 1 4.2.2 1.6 1.2 2c1 .2 4.7-9 2.8-14.8-3-9.4-16.5-12.6-23.4-1.2z"/><path fill="#FFF" d="M11.5 104.2c.5-.5 3.6-.4 5.3 1.3 1.7 1.7 2.2 3.6 2 4-.3.5-2.5.3-5-1.4s-3-3.2-2.3-3.8z"/><path fill="#FBD7C7" d="M12 104.6c1.2-.4 3 0 4.3 1.3 1.2 1 1.7 2 1.6 3 0 .7-1 2.6-1.3 3.5-.2.8-2.7 4.2-3.5 5.3-.7 1.2-1.6 1.7-1.8 3.5s-.8 2.7-2 2.8c-1.4.2-6.2-2.8-5.3-7 1-4.3 2.7-6.8 3.7-8.2.5-.7 2.6-1.8 3.3-2.3.8-.6.6-1.7 1-2z"/></symbol><symbol id="call" viewBox="0 0 512 512"><path d="M434.2 333c-9.8-16-35.7-23.2-50.3-26-26.6-5-60.8-4.7-77.4 7.7-5.5 4-8.2 12.6-8.8 27.5v5.6c-28.3-10.8-54.3-27-76.5-47.6l-9.8-9.7c-20.6-22-37-48-48-76h5.8c15-.6 23.5-3.3 27.6-8.8 12.4-16.4 12.8-50.3 7.7-76.6-2.8-14.5-10-40.4-26.3-50.2-16.2-9.8-41.4-7.4-51.4-6-20.7 3-38 10.4-46 19.6-7.2 8-9.7 31-10.5 40.6v.7c1.2 77.5 31 151.4 84 208.3v.2l15 14.8v.4C227 410 301.2 439 379 441c.3 0 .5-.3.7-.3 9.6-.7 32.6-3.4 40.7-10.5 9.3-8 16.7-25.3 19.7-46 1.6-10 4-35-5.8-51zm-10 49c-2.3 16.2-8 30.7-14.3 36-3 2.4-17.3 5.4-31.2 6.5-73.7-1.2-144-29.3-198.2-79L166 330.8C116 277 87.8 207 86.5 134c1-14 4-28.2 6.4-31 5.3-6.2 20-12 36.3-14.3 17-2.5 32.8-1 41 3.8 7.7 4.7 15 20 18.7 39.7 5 26 3 53.2-4.7 63.7-3 2-17 3.2-30.3 2.4-1.5-.4-3-.3-4.5.2-1.3.4-2.4 1.2-3.3 2-1.3 1.4-2 3.2-2.3 5-.2 1.8.2 3.4 1 4.8 11 32.3 28.8 62.2 51.8 87.7.3.5.6 1 1 1.3 2.3 2.6 4.7 5 7.2 7.5l7.5 7.2 1.2 1c25.6 22.8 55.7 40.4 88.2 51.4 1.3.8 3 1.2 4.6 1 2 0 3.7-1 5-2.2l.4-.4c.8-1 1.4-1.8 1.7-3 .5-1.4.5-3 .2-4.4-1-13 .2-27 2.4-30 10.6-7.8 38.3-9.8 64.5-4.7 19.6 3.8 34.8 11 39.5 18.7 5 8 6.3 23.6 3.8 40.6z"/></symbol><symbol id="file" viewBox="0 0 48 48"><title>file</title><path d="M33 29H15a1 1 0 0 0 0 2h18a1 1 0 0 0 0-2zM33 37H15a1 1 0 0 0 0 2h18a1 1 0 0 0 0-2zM14 22a1 1 0 0 0 1 1h18a1 1 0 0 0 0-2H15a1 1 0 0 0-1 1z" fill="#fecc00"/><path d="M40.6 11.2l-9.8-9.8A1 1 0 0 0 30 1H11a4 4 0 0 0-4 4v38a4 4 0 0 0 4 4h26a4 4 0 0 0 4-4V12a1 1 0 0 0-.4-.8zM31 4.4l6.6 6.6H31zM39 43a2 2 0 0 1-2 2H11a2 2 0 0 1-2-2V5a2 2 0 0 1 2-2h18v9a1 1 0 0 0 1 1h9z" fill="#84c240"/></symbol><symbol id="heart" viewBox="0 0 48 48"><title>heart</title><path d="M34 3a12 12 0 0 0-10 5.4 12 12 0 0 0-22 6.5c0 8 10.9 22.4 21.2 28.8l.8.4.8-.4C35.1 37.3 46 22.9 46 14.9A12 12 0 0 0 34 3zM24 41.8C14.2 35.7 4 21.9 4 14.9a10 10 0 0 1 18.3-5.4l1.7 2.4 1.7-2.5A10 10 0 0 1 44 14.9c0 7-10.2 20.8-20 26.9z" fill="#84c240"/></symbol><symbol id="mac" viewBox="0 0 48 48"><title>mac</title><circle cx="24" cy="31" r="1" fill="#fecc00"/><path fill="#fecc00" d="M3 27h42v2H3z"/><path d="M43 4H5a4 4 0 0 0-4 4v23a4 4 0 0 0 4 4h13.8a11.5 11.5 0 0 1-4.4 7H12a1 1 0 0 0 0 2h24a1 1 0 0 0 0-2h-2.4a11.5 11.5 0 0 1-4.4-7H43a4 4 0 0 0 4-4V8a4 4 0 0 0-4-4zM30.6 42H17.4a12.7 12.7 0 0 0 3.5-7h6.3a12.7 12.7 0 0 0 3.4 7zM45 27v4a2 2 0 0 1-2 2H5a2 2 0 0 1-2-2V8a2 2 0 0 1 2-2h38a2 2 0 0 1 2 2z" fill="#84c240"/></symbol><symbol id="man--hover" viewBox="0 0 160 240"><path fill="#262626" d="M104 132c1.7 2 8.5 12 10 14 2 3 2.7 6.3.4 9-2.2 2.7-5.4 3-8 1.3-2.8-1.6-7.6-9.7-7.6-9.7L104 132z"/><path fill="#FFF" d="M104.6 136.6c2 2.6 7 10 8.5 12.6 1.4 2 1.8 5.2-1.6 7-3.4 1.6-6.7-1-8.2-3.4-1.6-2.2-6.5-9.8-6.5-9.8l8-6.4z"/><path d="M111 196.3c12.6 7 18.6 17 8 25.4S90.5 232 76.4 224s-5.8-16 3.7-22.2 19.3-11.8 30.8-5.5z" opacity=".2"/><path fill="#06547A" d="M40 124.3c-.4 5.2-2 11.3.6 20.7 2.5 9.4 4.8 21 7.7 23.7 2.6 2.5 7.6 3.3 13 1 5.4-2.5 13.7-6.8 17.7-7.2s18.6-4.8 18.6-4.8-3.8-16.2-7-16c-3 0-28 7.6-28 7.6l-4-22-18.5-3z"/><path d="M40 124.3c-.4 5.2-2 11.3.6 20.7 2.5 9.4 4.8 21 7.7 23.7 2.6 2.5 7.6 3.3 13 1 5.4-2.5 13.7-6.8 17.7-7.2s18.6-4.8 18.6-4.8-3.8-16.2-7-16c-3 0-28 7.6-28 7.6l-4-22-18.5-3z" opacity=".2"/><path fill="#06547A" d="M50.5 131s3 15 5 17.4 7.2 2.6 7.7 4.3c.5 1.7 13 22.7 16.2 25 4.2 3.2 12.4 3 14.8-1.3 2.2-4.2 3-14.3 5.6-19.8s5.6-7.6 7.2-9.6c2.6-3.3 1-17.5-6.2-18.7-7.2-1.2-8.2 5.2-10 8.2s-4.6 9-4.6 9l-7.5-18-4.7-9L50.5 131z"/><path fill="#FBD7C7" d="M41.2 25.6c.8 0 6.4.8 8.5-.7 1.2-1 1.5-3 1.5-4s-.5-4.3-2.4-5c-1.8-.5-6 0-8 1.3-1.6 1-2 2-3.3 3.4C36.2 22 35 23 34.2 25 33 27.4 31 35.2 28.5 39c-2.6 4-.6 6.7 1.6 9.4s11.3 11 11.7 12.2c.4 1 16.2-1.6 14.5-4.8-1.6-3.2-6-4.6-8-5.2s-3-1-4-2.5c-.8-.8-2-2.4-3.8-3.7l-3-2s2.8-4.5 3-8.8l.8-8z"/><path fill="#E5E5E5" d="M60.2 58.7s-2.6-3.3-5.3-5-5-2.5-5-2.5-2 1.5-4.3 4c-2.2 2.3-4.3 5.3-4.3 5.3s-3.4 6.5-3 15.7 3.7 23 3 28.3c-.7 5.3-1.8 18.4-1.8 20.6 0 2.3 5.8 8.4 15.3 8.2 9.3-.2 22-4.4 22.2-9.2s-2.5-4.8-2.7-9.4c-.3-4.6 1-20.4 8-29.3 5-6.5 4.2-7.2 8-9.4 3.7-2.3 0-13.5-3.8-13.8s-11.6-.5-15.3 0c-3.6.5-11.2-3.5-11.2-3.5z"/><path fill="#FBD7C7" d="M99 60.7s-1.2-3.2-2-9.2c-.6-6-.4-8.2-2-9.7s-4.3-1.4-4.8-2.6c-.5-1.2-2.2-1.7-3-3-.7-1.6-.6-3.5.8-4.4 1.4-1 4.5-2.3 5.8-1.6 1.3.6 1.8 1.3 2.6 2 1 1.2 1.8 3 3.4 5.8 1.6 2.7 7.8 16.7 9.4 20.2 1.6 3.5 2.8 7.3 0 10.4-2.8 3-7.3 2-11 3.3-3.7 1.3-7.2 4-8.8 4-1.6 0-6.5-1.6-7-8s4.7-5.6 5.7-5.5 1.5.2 4-1 7-.8 7-.8zm-28-1.3c.6-.8 4-4 5.4-4.3 1.5-.2 3-.4 4.4-1.8 1.7-1.7.7-3 .7-3s3.3-3.4 2.2-9c-1-6-10.2-11.7-17.4-6.4-2.8 2-9.5 12.7-9 15 .5 2.4 1.6 3 1 4.2-.8 1.3-1.5 5-2 5.4-.6.3-7 6.2 1 9.8 8.5 3.8 12-2.7 13.7-4.2 2-2 3-2.7 3-2.7s-4.5-.2-3-3z"/><path fill="#825012" d="M83.7 41c-.8-4-5.7-8.3-11-8.3.3.6 1 1.4 1.7 2 2.7 2.4 4.2 1.2 5.2 4.3 1 3-3.5 10.2-3.5 10.2l1.3.8s3-1.5 4.2.3c.4-.5 3.2-4 2.2-9.2z"/></symbol><symbol id="man" viewBox="0 0 160 240"><path d="M89.4 217.6c-14 7.4-40.2 21-54 13.7-13.7-7.4 20-17.7 38-28.7s33.6-23 50.7-13.5c15.4 8.7-20.5 21.2-34.6 28.6z" fill-opacity=".2"/><path d="M64.4 129s-2.2.4-4.3-.4c-2-.8-3-3-3.7-6-.6-3 .8-5.4 1.6-7.4s3.3-10.7 5.3-16.5l1 30.2z" fill="#FBD7C7"/><path d="M58 210.4s-4 2.6-6 5.3c-2 2.6-4.5 3.7-7.8 5.2-3.3 1.3-5 2.2-5 4-.2 1-1 3.4 2 4.6 1.2.5 3.4 1 5 1 3-.5 6-2.2 8-3.6 4.8-3.5 8.2-4.4 11.8-5.4 4.6-1.3 3.4-3.8 3.5-6.6L58 210.4z" fill="#262626"/><path d="M52.5 214.5c-1.3 2.4-4 4.6-7 6s-5.6 2.3-6 4S42 228 45 228c3.7 0 10.8-5.8 13.6-7.6 2.4-1.5 10.3-3.7 10.3-3.7s-15.3-4.3-16.5-2z" fill="#fff"/><path d="M111.2 188.8c-3 0-9.6 4.2-10.2 6.3-.6 2.2-4.4 6-7.5 7.5-3.2 1.5-2.8 1.7-2.6 3.7 0 2 0 1.8 3.8 2.7 3.8.8 12.7-2.2 15-3.8 2-1.6 8-11.8 8-11.8s-3.7-4.5-6.6-4.6z" fill="#262626"/><path d="M103.4 191.2s-3.8 5.5-5.3 8c-1.4 2.2-5.5 3.6-6.4 4.5s-.6 1 3 1.7c4 .7 11-1.8 13-2.7 2-1 4.6-6.8 7.5-9l-11.6-2.5z" fill="#fff"/><path d="M76.5 128l3 17.4s-1.4 2.5-2.6 5.4c-2 4.3-7.2 17.4-8 21-1 3.7 1.6 33.4 2 37.5s0 7.7-.4 8.8-5 1.6-9.3 1.3-9.8-2.4-10.5-3.7c-.6-1.3.5-4.2 2-6s1-3.2.7-6.2c-.2-4-2-19.4-2.8-23s-2-9-1.6-11.2c.4-2.5 3.6-13.4 5.8-20.6s6.7-20 8-23.6l13.7 3z" fill="#06547A"/><path d="M76.5 128l3 17.4s-1.4 2.5-2.6 5.4c-2 4.3-7.2 17.4-8 21-1 3.7 1.6 33.4 2 37.5s0 7.7-.4 8.8-5 1.6-9.3 1.3-9.8-2.4-10.5-3.7c-.6-1.3.5-4.2 2-6s1-3.2.7-6.2c-.2-4-2-19.4-2.8-23s-2-9-1.6-11.2c.4-2.5 3.6-13.4 5.8-20.6s6.7-20 8-23.6l13.7 3z" fill-opacity=".2"/><path d="M94.2 114.2s2.7 1.2 5 8c3.2 9.2 4 14.2 4.7 19.7s1.5 14.6 2.3 19.5c.4 3 1.8 4.6 3.5 6.8 2 2.8 4.4 7.3 6.4 9.7 2 2.3 1.6 6.4 1.6 6.4s2 3.4 2 5.8-2.3 6-8 7c-6 1-12-1.8-12-1.8s.7-3.5 1.4-5.2c.7-1.7-.2-3.5-1.4-5-1.3-2-7.3-9.6-9.5-12.3-2.6-3.3-4.6-6-7.8-17-1.2-4.2-2.3-9-3-10.7s-3.6-13.5-3.6-13.5L94 114.2z" fill="#06547A"/><path d="M73.5 56.6l-8 7.3s-.4 12 8.2 13.4S89.4 66 89.4 66s-2-1-4.7-3.3C82 60.3 82.3 58.4 82 56l-8.5.6z" fill="#FBD7C7"/><path d="M74.3 75c8 2 14-10 14-10l4 2c3.3 1.5 6.6 3 8.8 6.6 2 3.2 1 10.7.7 11.8-.2 1-7.2 1.2-7.2 1.2s6 30 4.8 35.2-16.6 11.5-24 11c-9-.7-14-3.8-13.8-6.4.7-6 1-18.8 1-22.8-.2-3.7-.6-8.8-3.4-12.8s-2.6-10.8-2.4-14-.3-4.8-.7-8c-.5-3.4 3-6.3 5.8-7.2 2.8-.8 6.8 0 6.8 0s-5 11 5.7 13.5z" fill="#E5E5E5"/><path d="M90.2 94.2c1.4 6 4.8 11.5 5 12.6s-2 4.8-3.5 9c-1.5 4-2.5 10.7-4 14s-1.4 2-3.2 3.2-2.2 2-3.4 4.3c-1 2.4-.3 5.5-.3 5.5s-.5 1.8-1.5 2.8-3.2 2.2-2.3 2.8c.7.5 3-1 3-1s.3 1 1.3 1 2-.6 2-.6 1.3 1 3 .6c1.6-.5 3-1 4.5-2.3s1.2-1.6 1.3-3.8c0-2.3.7-4.6 1.3-7 .5-2.2 8.6-20.4 10-23.4 1.3-3 1.3-5.3.8-7l-2.5-15.7c-.3-1.2.2-3.4.2-3.4s-3 .8-5.6 1l-7.6-.2s.2 1.7 1.8 7.8zM62.8 52c-.2 3.8 2.3 16 5.5 16.3 3.2.4 7.8-2.7 10-5 2-2.2 3-5.3 4.7-7 1.8-1.5 2.8-4.8 2.5-6-.3-1.3-1.3-1-1.3-1s.2-2.5 0-6-3.2-7-8.6-7.2C63 35.5 63 48 62.8 52z" fill="#FBD7C7"/><path d="M64.2 43.2l1-.3c1.2 0 1 2.3 3.7 3 2.8.5 4.7-2.2 7-1.4s3.6 8.3 3.6 8.3l1.4.4s0-.7 1-2.4c.7-1 1.7-1.4 2.3-1.7.2-1 .4-3.3 0-6-.3-4-3.3-7.2-8.7-7.5-7-.4-10 3.4-11.4 7.4z" fill="#825012"/></symbol><symbol id="notebook" viewBox="0 0 48 48"><title>notebook</title><path d="M12 7h22a1 1 0 0 0 0-2H12a1 1 0 0 0 0 2z" fill="#fecc00"/><path d="M40.7 9.3A1 1 0 0 0 40 9h-1V2a1 1 0 0 0-1-1H12a5 5 0 0 0-5 5v36a5 5 0 0 0 5 5h28a1 1 0 0 0 1-1V10a1 1 0 0 0-.3-.7zM12 3h25v6H12a3 3 0 0 1 0-6zm3 42h-3a3 3 0 0 1-3-3V10a5 5 0 0 0 3 1h3zm24 0H17V11h22z" fill="#84c240"/></symbol><symbol id="oldman--hover" viewBox="0 0 160 240"><path d="M43 231.8c10.4 5.6 33-3.3 48.5-10.8 13.4-6.4 41.7-19 31.3-25.2-10.4-6.3-28 1.4-44.7 9-14.4 6.7-49.4 19-35 27z" opacity=".2"/><path fill="#825012" d="M55.5 214.7c-1.7 2.5-6 6.6-8.2 7.6-2.2 1-6 .4-6.8 2.8-.7 2.5.6 4.6 4.5 5.3 4 .7 7.7 0 9.7-1 2-1 7.8-3 11-2.7 3 .2 4.2-1.4 4.3-3s-.7-8.3-.7-8.3l-13.8-.6z"/><path d="M54.7 229.2c2-1 7.8-3 11-2.7 3 .2 4.2-1.4 4.3-3v-1.2c-.6 1.2-1.7 2.3-3.2 2.4-3.2 0-4.2.3-7.4 1.3s-7.8 3.7-13.3 3c-4-.6-5-2.2-5.2-4.3 0 0 0 .3-.2.4-.7 2.5.6 4.6 4.5 5.3s7.7 0 9.7-1z" opacity=".4"/><path fill="#825012" d="M111.4 188.3s-.4 1.2-2.3 4.6c-1.8 3.3-4.7 5.3-6.2 6.4-1.5 1-3.3 2.7-3 4.3 1.7 7 16 5 19.7-3.5 1.5-3.5 7.5-10 6.6-12.5-.7-2.4-2.2-5-3.6-5.3s-11 6-11 6z"/><path d="M119.4 200c1.5-3.4 7.5-9.8 6.6-12.4 0-.4-.3-.8-.5-1.2-1 3-4.7 7.4-6 10.5-4.6 11-16 11.2-19.7 6v.7c1.6 7 16 5 19.6-3.6z" opacity=".4"/><path fill="#BAA794" d="M61 118.4s-3 6-4.3 13c-1.2 7.3-2.7 31.5-2.5 39.2.4 20.2-1.3 44.2-2 46-.4 1.5 7 2.4 10.3 2.4 3.4 0 8.6.3 8.7-1.4 0-1.7.6-22.6 1-30.7.2-8.2-1.7-15.3.6-20.6s8.3-20.5 9-26.4c.6-6-1-15.5-1-15.5l-19.7-6z"/><path d="M61 118.4s-3 6-4.3 13c-1.2 7.3-2.7 31.5-2.5 39.2.4 20.2-1.3 44.2-2 46-.4 1.5 7 2.4 10.3 2.4 3.4 0 8.6.3 8.7-1.4 0-1.7.6-22.6 1-30.7.2-8.2-1.7-15.3.6-20.6s8.3-20.5 9-26.4c.6-6-1-15.5-1-15.5l-19.7-6z" opacity=".2"/><path fill="#BAA794" d="M71.2 121.6c1 3.4 6.6 9.4 8.3 14.4s2.8 12.6 4.3 17.2c1.6 5 5 9.8 6.3 14.8s4 7.2 7 9.2c3 2 7.5 5 9.7 9 1.7 3 1.2 4.5 3.2 5.6 2 1.2 7.5.2 10.5-2 3.3-2.5 5-4.5 4.4-6.5-.8-1.8-3.5-10.4-11.2-18-3.4-3.5-5-5-5.5-6-.4-1 1-12.3 1.4-18.5.3-5.2 0-20.3-3.7-25l-3.8-4.4-14 6.6c-8 3.8-17 3.6-17 3.6z"/><path fill="#E5E5E5" d="M81 51c-6-1-15-1-17 4.2s-7 20.6-7 24c-.4 3.4 1 8 1.3 11.7.6 6.5 1 16.6.7 24.3-.2 4.2-2 8.8-.5 9.3 1.3.5 12.6 3 23.2 1.6 13-1.8 25-4.8 26-7.5.7-2-2.4-31.6-1.7-36.4.6-4.2.4-9-1.4-13-1.8-3.8-6-7.8-11.4-12C89.2 54 81 51 81 51z"/><path fill="#FBD7C7" d="M90.6 86.8s3 0 7.7-1.2c5-1.2 6.3-2 6.3-2s1.6 6.6 2 10c.6 3.4.6 8.7 1 10.5.6 2 1 5.3-2.3 9.8-3 4.5-17.3 21-20 24.5-3 3.4-7.8 8-10.8 8-3 0-6.6-1-8-2.4s-1.5-4.2-.3-5c1-.8 4-1.4 4-1.4l.7-1.6h-1.4s-1.4 1.4-2.5 1.6 0-2.5.4-3c.3-.8 2.5-2 5.4-2.5s6.2 1 7.6-1c1.4-2.3 6.2-12.3 9.2-16 3-3.7 7-7.5 7-8s-2.7-5-4-10.8l-2-9.4zM68 34.6c-2.7 4.4-1.2 15-.8 17.5.4 2.7 1 5.6 3 6.3 2 .7 3.6 1.5 3.6 2.7s-3 4-1.7 4.7c1.4.8 8.6 1 14.6-1.5 5.6-2.3 7.2-5 6.5-6-.7-1-4-3-4-6s3-7.8 3-12.3c.2-9.2-13.2-14.7-21-8.4-1 .7-2 1.7-3 3z"/><path fill="#999" d="M81.7 30.2c5.6 3-3.8 7-1.6 9 2 1.8 2 7.3 3 9 1.2 2 2.4-2.3 3.5-3.4 1-1 2.8-1.2 3.3.3.5 1.6-.4 3.8-.5 4.4C91 49 93 43.7 92.6 38c-.4-6.8-10-13.3-20.7-7.3-2.2 1.2-3 2.5-1.8 1.6 2-1.6 8-4 11.5-2z"/><path d="M91.6 101.5c.2 2 1 5-1.8 8.4-4 5-9.3 12.5-12.2 16.6 1.3 0 2.7-.2 4-.4 13-1.8 25-4.8 26-7.5.4-1-.3-9.7-1-18.4L90 87.3l1.6 14.2z" opacity=".2"/><path fill="#E5E5E5" d="M106 77.3c.3 2.7 1.8 13 2.6 17.7s2.4 9.2 2 11.4-1.7 8.7-5 12.8c-4 4.7-9.7 11-12.8 13.7-1.8 1.4-4.4 2.3-4.4 2.3l-2.6 3-6.5-7 2-2s4.3-10 7-13.3l7-9.2S92 98 91.3 95s-1.6-9.7-1.6-9.7l16.4-8z"/></symbol><symbol id="oldman" viewBox="0 0 80 240"><path d="M64.8 232c19.4-9.4 1.8-22-17.4-25.3-8.4-1.5-13.5-15-34.6-1.6-17 11 0 18 8.6 22 12 5.6 25.3 13.7 43.4 5z" opacity=".2"/><path fill="#FBD7C7" d="M23.3 93.5s-2 9.7-3 12.8c-1.3 3-2 7.7-1.6 11s2 10.5 2.7 11.6c.7 1 3.2 3.5 4 4 .8.3 2.4-15 2.4-15l-4.5-24.5z"/><path fill="#E5E5E5" d="M19 108.7l4 2.2 1.7-12-1-15s-2.2 5.6-3 11.5c-1 5.8-.8 9-.8 9l-1 4.2z"/><path fill="#825012" d="M27.2 201.6s2.2 3 6.2 2.3c4-.6 8-2.2 8-2.2s1 6.3-.8 8c-1.8 1.5-8.5 1.8-11.4 3.2-3 1.4-7 4.2-11.2 4.5-9.2.7-7.8-6.8-3.6-8.7 3.3-1.4 6.7-3 8.8-4.2 2-1 4-3 4-3z"/><path d="M41.6 207.4c-2.7 1.3-8.3 2.4-11 3-3.5.6-9.8 5.7-14.2 5.8-3 0-5-1.3-5-4-1 2.7.5 6 6.7 5.5 4.4-.3 8.4-3 11.3-4.5 3-1.4 9.6-1.6 11.4-3.3.5-.7.7-1.6 1-2.6z" opacity=".4"/><path fill="#825012" d="M54 214.6s2.3 2 5.6 1.7c3.3-.4 8-3.8 8.2-2 .3 1.6 2 5 .6 6.2-1.4 1-9 5.7-10.4 7-1.4 1.5-5.6 5-10 5.4-4.7.4-9-1.4-9-5 0-4 6.5-6.8 9.3-8.7 2.7-2 5.6-4.7 5.6-4.7z"/><path d="M58 227.5c1.3-1.4 9-6 10.3-7 .7-.6.6-1.7.4-2.8-2 1.7-6 3.7-9.5 6-5.2 3.2-6.2 7.3-13.4 7.6-5 .2-7-2.2-7-4.6v1.2c0 3.4 4.3 5.3 9 4.7 4.5-.4 8.7-3.8 10-5.2z" opacity=".4"/><path fill="#BAA794" d="M23 109.3c-1 4-.7 15.3 0 21.4 1 6 1.8 19 3.3 31.7 1 8.5-.7 32-2 37.4-.6 3.7-3.3 6.2 1 7.7 5 1.7 10 2 15.2.5 2.2-.6 1.7-2.8 1.8-6.3 0-4.7 1.5-15.8 2-20s.6-9.3.8-14c.4-4.5 1.8-20.6 2.3-24.3.5-3.7.5-32.6.5-32.6l-25-1.5z"/><path d="M23 109.3c-1 4-.7 15.3 0 21.4 1 6 1.8 19 3.3 31.7 1 8.5-.7 32-2 37.4-.6 3.7-3.3 6.2 1 7.7 5 1.7 10 2 15.2.5 2.2-.6 1.7-2.8 1.8-6.3 0-4.7 1.5-15.8 2-20s.6-9.3.8-14c.4-4.5 1.8-20.6 2.3-24.3.5-3.7.5-32.6.5-32.6l-25-1.5z" opacity=".2"/><path fill="#BAA794" d="M30.4 109.5s-1.5 8.2 2.2 12.8c3.7 4.6 8.6 6.7 8.5 10 0 3.2 3 21.2 5 27.3s2.7 14.4 3.4 20.2c.7 5.8 1.5 22 1.2 26.2-.3 5.6-1.8 10.8-2.2 12.8-.3 1.4 5 3.5 8.2 3.7 5.4.3 8.3-1.5 10.4-3 2-1.3 1.8-1.5 1.7-4.6 0-3.2-.7-32-1.2-39s2.4-39 2.2-45.3c-.5-11.6-4-22-4-22l-35.3.8z"/><path fill="#E5E5E5" d="M49 46c-8.3-.4-15.2-2.3-18 2.5s-2.8 8-4.2 10.2-4.3 8.8-4.2 13.4c0 4.7 1.4 7.4.8 10-.7 2.6-1.5 11.7-1.6 15.2-.2 6.8-.6 13 .5 14.8 1.7 2.6 16.6 4 27.2 2.8 12-1.4 20-5 20-6.2s-4.8-13.4-5.6-15c-6.7-13.8 10-18.4 10-19-.2-2 .6-8.7 0-11.6-.4-3-4-7.6-6.6-10-2.6-2.5-6.8-6.5-9.7-7.3C55 45 49 46 49 46z"/><path fill="#FBD7C7" d="M58 78.2s5.3.4 9.2-.8 6-2.4 6-2.4 1.3 13 2.3 15.6c1 2.7 1 7.3-.5 12.6-1.4 5.3-4 23.6-4 26.4 0 2.8-.2 6.3-.7 8.3s-2 5.7-4.5 7.2c-3 1.7-6.4 1.4-7.6.4-2-1.5 2-7.3 1-8-.7-1-2.3-.7-2.8.6s-2.4 2.7-3.4 2c-1-.7.2-1.8.8-3 .6-1 2-3.8 3.4-4.7s4-1.4 4.6-3.8c.6-2.5 0-13 .6-18.5s3-10.5 2.8-11.6c0-1-3.6-9.2-5.2-14L58 78zM35.5 24.5c-2.8 4.3-1.3 14.8-1 17.5.5 2.6 1.2 5.4 3 6.2 2 .7 3.7 1.5 3.7 2.7 0 1-3 3.8-1.7 4.6 1.3.8 8.5 1 14.5-1.5 5.6-2.2 7.2-5 6.4-6-.7-.8-4.2-2.8-4.2-5.8s3-7.8 3.2-12.4c0-9-13.3-14.6-21-8.3-1 .7-2 1.7-3 3z"/><path fill="#999" d="M49 20c5.7 3.2-3.7 7-1.5 9 2 2 2 7.4 3 9 1 2.2 2.3-2.2 3.4-3.3 1-1 2.7-1.2 3.2.3s-.4 3.7-.5 4.3c1.6-.3 3.7-5.7 3.3-11.4-.4-7-10-13.3-20.6-7.4-2 1.2-2.8 2.5-1.7 1.6 2-1.6 8-4 11.4-2z"/><path d="M57.6 78.2s2.8 14 2.7 18-4.3 17.6-4.3 17.6l10-2.4 2.8-15.8-11.2-17.4z" opacity=".2"/><path fill="#E5E5E5" d="M61.2 121l.6 5.2-.8 3.3s5.2 0 7 .8l3.3 2V127s4-14 5.2-19c1-4.7.3-13.6 0-15.2-.2-1.6-2-19.6-2-22.8s-.5-6.5-.5-6.5L54.5 70s7.2 18.5 8 23c.6 4.6-2.2 19.2-1.3 28z"/></symbol><symbol id="profile" viewBox="0 0 48 48"><title>profile</title><path fill="#84c240" d="M23 9h2v2h-2z"/><path d="M43 13H28V9a4 4 0 0 0-8 0v4H5a4 4 0 0 0-4 4v21a4 4 0 0 0 4 4h38a4 4 0 0 0 4-4V17a4 4 0 0 0-4-4zM22 9a2 2 0 0 1 4 0v6a2 2 0 0 1-4 0zm23 29a2 2 0 0 1-2 2H5a2 2 0 0 1-2-2V17a2 2 0 0 1 2-2h15a4 4 0 0 0 8 0h15a2 2 0 0 1 2 2z" fill="#84c240"/><path d="M19 36v-1l1.1-.8a4.2 4.2 0 0 0 1.5-2.6 39.5 39.5 0 0 0 .5-4.2c0-3.2-1.3-6.4-6-6.4H16c-4.7 0-6 3.2-6 6.4a39.5 39.5 0 0 0 .5 4.2 4.2 4.2 0 0 0 1.5 2.6l1.1.8v1c-4.2.1-5 1.8-5 1.8A10.8 10.8 0 0 0 6.8 40H9a4.9 4.9 0 0 1 .6-1s.6-.9 3.2-1a2.2 2.2 0 0 0 2.2-2v-1.5-.8a11.2 11.2 0 0 1-2-1.4 3 3 0 0 1-.7-1.4 33.9 33.9 0 0 1-.2-3.7c0-2.1 1-4.3 4-4.3s4 2.2 4 4.3a33.6 33.6 0 0 1-.2 3.7 3 3 0 0 1-.7 1.4 11.2 11.2 0 0 1-2 1.4V36a2.2 2.2 0 0 0 2.2 2c2.6.1 3.2 1 3.2 1a4.7 4.7 0 0 1 .6 1h2.2a10.8 10.8 0 0 0-1.4-2.2s-.8-1.8-5-1.8z" fill="#fecc00"/><path d="M40 24H28a1 1 0 0 0 0 2h12a1 1 0 0 0 0-2zM34 34h-6a1 1 0 0 0 0 2h6a1 1 0 0 0 0-2zM37 30h-4a1 1 0 0 0 0 2h4a1 1 0 0 0 0-2zM28 32h2a1 1 0 0 0 0-2h-2a1 1 0 0 0 0 2z" fill="#84c240"/></symbol><symbol id="soc-facebook" viewBox="0 0 50 50"><path d="M30 26l1-5h-5v-4c0-1.5.8-2 3-2h2v-5h-4c-4.1 0-7 2.4-7 7v4h-5v5h5v14h6V26h4z"/><path d="M25 1C11.7 1 1 11.7 1 25s10.7 24 24 24 24-10.7 24-24S38.3 1 25 1zm0 43C14.5 44 6 35.5 6 25S14.5 6 25 6s19 8.5 19 19-8.5 19-19 19z"/></symbol><symbol id="soc-instagram" viewBox="0 0 50 50"><path d="M34.1 12.6H15.5c-1.6 0-2.9 1.3-2.9 2.9v19c0 1.6 1.3 2.9 2.9 2.9h19c1.5-.1 2.9-1.3 2.9-2.9v-19c-.1-1.5-1.8-2.8-3.3-2.9zM25 20.5c2.5 0 4.5 2 4.5 4.5s-2 4.5-4.5 4.5-4.5-2-4.5-4.5 2-4.5 4.5-4.5zm9.1 11.9c0 .9-.7 1.6-1.6 1.6H17.6c-.9 0-1.6-.7-1.6-1.6v-9.5h1.9c-.2.7-.3 1.3-.3 2.1 0 4.1 3.3 7.4 7.4 7.4s7.4-3.3 7.4-7.4c0-.7-.1-1.4-.3-2.1H34v9.5zm0-15.6v2.5c0 .4-.4.8-.8.8h-2.5c-.4 0-.8-.4-.8-.8v-2.5c0-.5.4-.8.8-.8h2.5c.4-.1.8.3.8.8z"/><path d="M25 1C11.7 1 1 11.7 1 25s10.7 24 24 24 24-10.7 24-24S38.3 1 25 1zm0 43C14.5 44 6 35.5 6 25S14.5 6 25 6s19 8.5 19 19-8.5 19-19 19z"/></symbol><symbol id="soc-ok" viewBox="0 0 50 50"><path d="M32 25c-1 0-3 2-7 2s-6-2-7-2c-1.1 0-2 .9-2 2 0 1 .6 1.5 1 1.7 1.2.7 5 2.3 5 2.3l-4.3 5.4s-.8.9-.8 1.6c0 1.1.9 2 2 2 1 0 1.5-.7 1.5-.7L25 34l4.5 5.3s.5.7 1.5.7c1.1 0 2-.9 2-2 0-.6-.8-1.6-.8-1.6L28 31s3.8-1.6 5-2.3c.4-.3 1-.7 1-1.7 0-1.1-.9-2-2-2zm-7-15c-3.9 0-7 3.1-7 7s3.1 7 7 7 7-3.1 7-7-3.1-7-7-7zm0 10.5c-1.9 0-3.5-1.6-3.5-3.5s1.6-3.5 3.5-3.5 3.5 1.6 3.5 3.5-1.6 3.5-3.5 3.5z"/><path d="M25 1C11.7 1 1 11.7 1 25s10.7 24 24 24 24-10.7 24-24S38.3 1 25 1zm0 43C14.5 44 6 35.5 6 25S14.5 6 25 6s19 8.5 19 19-8.5 19-19 19z"/></symbol><symbol id="soc-twitter" viewBox="0 0 50 50"><path d="M39.3 16.6c-1.1.5-2.6 1.1-3.8 1.2 1.2-.7 2.4-2.4 2.9-3.8-.9.6-2 1.3-3.1 1.7l-.7-.7c-1.1-1.1-2.1-1.9-3.8-1.9-3.3 0-5.7 2.5-5.7 5.7 0 .4 0 .7.1.9h-.1c-5.7 0-9.5-1.2-12.4-4.8-.5.9-1 1.8-1 2.9 0 2 1.3 3.7 2.9 4.8-1 0-2.1-.5-2.9-1 0 2.9 4 6.2 6.7 6.7-1 1-4.4.1-4.8 0 .8 2.3 3.2 3.8 5.7 3.8-2 1.6-4.4 2.4-7.2 2.4-.5 0-.9 0-1.4-.1 2.6 1.7 6.2 2.5 9.6 2.5 10.8 0 16.3-8.5 16.3-16.3v-1c1-.7 2-1.8 2.7-3z"/><path d="M25 1C11.7 1 1 11.7 1 25s10.7 24 24 24 24-10.7 24-24S38.3 1 25 1zm0 43C14.5 44 6 35.5 6 25S14.5 6 25 6s19 8.5 19 19-8.5 19-19 19z"/></symbol><symbol id="soc-vk" viewBox="0 0 50 50"><path d="M26 34c1 0 1-1.4 1-2 0-1 1-2 2-2s2.7 1.7 4 3c1 1 1 1 2 1h3s2-.1 2-2c0-.6-.7-1.7-3-4-2-2-3-1 0-5 1.8-2.5 3.2-4.7 3-5.3-.2-.6-5.3-1.6-6-.7-2 3-2.4 3.7-3 5-1 2-1.1 3-2 3-.9 0-1-1.9-1-3 0-3.3.5-5.6-1-6h-3c-1.6 0-3 1-3 1s-1.2 1-1 1c.3 0 2-.4 2 1v2s0 4-1 4-3-4-5-7c-.8-1.2-1-1-2-1h-3c-1 0-1.1.6-1 1 2 5 3.4 8.1 7.2 12.1 3.5 3.6 5.8 3.8 7.8 3.9h1z"/><path d="M25 1C11.7 1 1 11.7 1 25s10.7 24 24 24 24-10.7 24-24S38.3 1 25 1zm0 43C14.5 44 6 35.5 6 25S14.5 6 25 6s19 8.5 19 19-8.5 19-19 19z"/></symbol><symbol id="soc-youtube" viewBox="0 0 50 50"><path d="M39.7 19s-.3-2.1-1.2-3c-1.1-1.2-2.4-1.2-3-1.3-4.2-.2-10.5-.2-10.5-.2s-6.3 0-10.5.3c-.6.1-1.9.1-3 1.3-.9.9-1.2 3-1.2 3s-.3 2-.3 4.4v3c0 2.4.3 4.5.3 4.5s.3 2.1 1.2 3c1.1 1.2 2.6 1.2 3.3 1.3 2.4.2 10.2.2 10.2.2s6.3.1 10.5-.2c.6-.1 1.9-.1 3-1.3.9-.9 1.2-3 1.2-3s.3-2.1.3-4.5v-3c0-2.4-.3-4.5-.3-4.5zM21 29v-8l8 4-8 4z"/><path d="M25 1C11.7 1 1 11.7 1 25s10.7 24 24 24 24-10.7 24-24S38.3 1 25 1zm0 43C14.5 44 6 35.5 6 25S14.5 6 25 6s19 8.5 19 19-8.5 19-19 19z"/></symbol><symbol id="star" viewBox="0 0 512 512"><path d="M256 119.4l44.4 89.9 99.2 14.5-71.8 70 17 98.8-88.8-46.7-88.8 46.7 17-98.8-71.8-70 99.2-14.5z"/></symbol><symbol id="stopwatch" viewBox="0 0 48 48"><title>stopwatch</title><path d="M37.4 15l2.3-2.3a1 1 0 1 0-1.4-1.4L36 13.6a18 18 0 0 0-9-4.3V5h2a1 1 0 0 0 0-2H19a1 1 0 0 0 0 2h2v4.3A18 18 0 1 0 37.4 15zM23 5h2v4h-2zm1 38a16 16 0 1 1 16-16 16 16 0 0 1-16 16z" fill="#84c240"/><path d="M24 23a4 4 0 0 0-2 .6l-5.3-5.3a1 1 0 0 0-1.4 1.4l5.3 5.3a4 4 0 0 0-.6 2 4 4 0 1 0 4-4zm0 6a2 2 0 1 1 2-2 2 2 0 0 1-2 2z" fill="#fecc00"/></symbol><symbol id="thumbs-up" viewBox="0 0 48 48"><title>thumbs-up</title><circle cx="7.5" cy="39.5" r="1.5" fill="#fecc00"/><path d="M46 31a4 4 0 0 0-1-2.6 4 4 0 0 0-2-7.4H28s3-3.4 3-10c0 0 0-5-3-8a3.8 3.8 0 0 0-3-1s-2.5-.3-3 3v5l-7.6 11-1.4 2a13.4 13.4 0 0 0-3 8 62.5 62.5 0 0 0 1.4 11.4l.2.6 1 2a5.5 5.5 0 0 0 4 2H40a4 4 0 0 0 3-6.6 4 4 0 0 0 1-6 4 4 0 0 0 2-3.4zm-2-4.3l-2 1.2 1.5 1.8a2 2 0 0 1-.5 3l-2 1.2 1.5 1.8a2 2 0 0 1-.5 3l-2 1.2 1.5 1.8A2 2 0 0 1 40 45H16.7a3.5 3.5 0 0 1-3.3-2.9A62 62 0 0 1 12 31a11.2 11.2 0 0 1 2.5-6.7v-.2L24 10.6V5.2c.1-.5.3-1.2.9-1.2a2.8 2.8 0 0 1 1.6.3h.1C28.9 6.8 29 11 29 11c0 5.7-2.5 8.6-2.5 8.7L23.6 23H43a2 2 0 0 1 2 2 2 2 0 0 1-1 1.7z" fill="#84c240"/><path d="M6 43c-.8 0-3-3.4-3-10s2.2-10 3-10h7l1.4-2H6c-2.8 0-5 5.4-5 12s2.2 12 5 12h6.6l-1-2z" fill="#fecc00"/></symbol><symbol id="wallet" viewBox="0 0 48 48"><title>wallet</title><path d="M14.4 13l11-4L31 7l2-.7 1.1 2.9 1.4 3.8h2.1l-1.5-4-.7-2-.9-2.3a1 1 0 0 0-1.3-.6l-8 2.9-16.6 6z" fill="#fecc00"/><path d="M43 13v-2a4 4 0 0 0-4-4h-3.6l.7 2H39a2 2 0 0 1 2 2v2H5a2 2 0 0 1 0-4h14.7l-11 4 16.5-6H5a4 4 0 0 0-4 4v29a5 5 0 0 0 5 5h36a5 5 0 0 0 5-5V17a4 4 0 0 0-4-4zm2 18h-4a2 2 0 0 1 0-4h4zm0-6h-4a4 4 0 0 0 0 8h4v7a3 3 0 0 1-3 3H6a3 3 0 0 1-3-3V14.4a4 4 0 0 0 2 .6h38a2 2 0 0 1 2 2z" fill="#84c240"/><path fill="#84c240" d="M41 28h2v2h-2z"/></symbol></svg>