<svg xmlns="http://www.w3.org/2000/svg" viewBox="0 0 48 48"><title>bank</title><path d="M45,15.4,24,4,3,15.4v2H45Zm-37.6,0L24,6.9l16.5,8.6Z" fill="#84c240"/><path d="M8,34.4a1,1,0,0,0,0,2h8a1,1,0,0,0,0-2H15v-13h1a1,1,0,0,0,0-2H8a1,1,0,0,0,0,2H9v13Zm3-13h2v13H11Z" fill="#fecc00"/><path d="M32,34.4a1,1,0,0,0,0,2h8a1,1,0,0,0,0-2H39v-13h1a1,1,0,0,0,0-2H32a1,1,0,0,0,0,2h1v13Zm3-13h2v13H35Z" fill="#fecc00"/><path d="M4,39.4a1,1,0,0,0,1,1H43a1,1,0,0,0,0-2H5A1,1,0,0,0,4,39.4Z" fill="#84c240"/><path d="M46,42.4H2a1,1,0,0,0,0,2H46a1,1,0,0,0,0-2Z" fill="#84c240"/><path d="M20,34.4a1,1,0,0,0,0,2h8a1,1,0,0,0,0-2H27v-13h1a1,1,0,0,0,0-2H20a1,1,0,0,0,0,2h1v13Zm3-13h2v13H23Z" fill="#fecc00"/></svg>