<svg xmlns="http://www.w3.org/2000/svg" viewBox="0 0 80 240"><path d="M59.7 230C77 220.6 64 213 48 205.6 30 197 23.6 195 7.3 204c-14 7.5-1.6 14.8 14.6 22.4C40.5 235 47.5 237 59.7 230z" opacity=".2"/><path fill="#262626" d="M19 201.7c-3.4 2.5-6.8 4-9.8 5.6-3 1.6-4.5 3-4 4.5.2 1.5 3 3.2 7.5 3 4.6-.2 12-4.4 13.4-4.5 1.5 0 1.2.8 2.2.8 1 0 6.4-1 7-1.6.6-.7 0-5.7 0-5.7l-16.2-2z"/><path d="M35 209.4c.4-.4.4-1.8.3-3-1.3 1-3.5 1.8-5.7 2-2.6 0-5.7.5-9.3 2.8s-16 4.2-14.6-1.4c-.6.7-1 1.4-.7 2 .3 1.6 3 3.3 7.6 3s12-4.3 13.4-4.4c1.4 0 1 .8 2 .8s6.6-1 7-1.8z" opacity=".5"/><path fill="#656565" d="M21.2 123c-1 6.7-1.3 30-.4 40.4.8 10.6.7 26 0 31.2-.7 4-2.6 6-2 7.4.4 1.5 5 4.6 10 5.2s7.3-.2 8-2.2c.6-2 2.8-23.5 3.5-37 .6-12 1.7-45 1.7-45H21.2z"/><path d="M21.2 123c-1 6.7-1.3 30-.4 40.4.8 10.6.7 26 0 31.2-.7 4-2.6 6-2 7.4.4 1.5 5 4.6 10 5.2s7.3-.2 8-2.2c.6-2 2.8-23.5 3.5-37 .6-12 1.7-45 1.7-45H21.2z" opacity=".3"/><path fill="#262626" d="M50 213.8c-.8 2.3-4.3 8-5 9.4-.8 1.4-2.3 3.3-1.3 4.7s5.7 3.2 10.4 1c4.8-2.3 5.6-7.8 5.6-7.8h.8s1-2.3 1-4c0-1.5-.3-2.5-.3-2.5l-11-1z"/><path d="M59.6 221.3h.8s1-2.3 1-4c0-1.5-.3-2.5-.3-2.5v.6c-.3 1.3-2.6 8.3-4 10-3.3 4.4-12.5 5.4-13.4.3-.3.8-.4 1.6 0 2.2 1 1.4 5.8 3.2 10.5 1s5.6-7.7 5.6-7.7z" opacity=".5"/><path fill="#656565" d="M33 124c0 4.2 4.5 9.2 5.8 15.3 1.3 6 5.3 36.3 6.3 45.2 1.6 13 3 31.7 3.3 32 .4 0 3.7-2 7-.3 3 1.7 6.7 1 7.8.2s.7-9.4.3-14.6-2-43.6-1.8-48.8c0-5.2 1.8-19.3 1.4-22.6-.5-3.4-2.4-7.3-2.4-7.3L33 124z"/><path d="M33 124c0 4.2 4.5 9.2 5.8 15.3 1.3 6 5.3 36.3 6.3 45.2 1.6 13 3 31.7 3.3 32 .4 0 3.7-2 7-.3 3 1.7 6.7 1 7.8.2s.7-9.4.3-14.6-2-43.6-1.8-48.8c0-5.2 1.8-19.3 1.4-22.6-.5-3.4-2.4-7.3-2.4-7.3L33 124z" opacity=".1"/><path fill="#656565" d="M23 76.6c-2.6 4-5.2 10.3-6.7 14.5-1.5 4.3-5.4 11.8-5.7 12.8-.2 1 0 4.6 3.4 5.7s5.2 1.8 5.8 1c.5-1 4.2-5 4.2-5l-1-29z"/><path d="M23 76.6c-2.6 4-5.2 10.3-6.7 14.5-1.5 4.3-5.4 11.8-5.7 12.8-.2 1 0 4.6 3.4 5.7s5.2 1.8 5.8 1c.5-1 4.2-5 4.2-5l-1-29z" opacity=".1"/><path fill="#FFF" d="M35.7 48.8C33.7 50.4 25.5 62 25 76.5s3.3 21 3.3 21 11-29 17-35.5 5.5-11.5 5.5-11.5-3.8-2.6-8-3c-4-.2-7 1.3-7 1.3z"/><path d="M35.4 58.8l2.3 6.4L44 61l-6.7 6-2-8H34l-3.8 4.3v-3.8l.3 2L34 58l1.4.8z" opacity=".2"/><path fill="#CC291F" d="M32.5 63.5v-3.8l1.4-1.6 1.4.8 1 2.7-2.3 2.3L32 84.2c0 2.2-3 13-3 13S24 84.7 24.3 84.5s8-21 8-21z"/><path fill="#FBD7C7" d="M68.7 132c-.3 1-.2 2-2 3.3-1.7 1.3-3 3.6-3.5 5.2-.4 1.6-1.7 3.5-2 4.7s1 2 2 1c1-.7 2.8-4.4 3.8-4.7 1-.3 1.3 3 1.4 4 0 1-1.5 3-2.2 4-.8 1 0 2 1 1.6s6-2.8 7-7.8c1.4-5 .8-12 .8-12l-6.3 1z"/><path fill="#FFF" d="M66.5 131.3v2s3.7 1 6.8.6 3.8-1 3.8-1l-.2-3-10.3 1.3z"/><path fill="#656565" d="M39.3 48c-2 .3-9.2-2-13.2 4s-4.6 12.7-4.8 18.4C21 76 20 113.4 20 120s0 9.4 3 10.3c3.4 1 6-2 6-3.8l-.3-30.7s-5-12-1.7-25.8 8.5-18.4 8.5-18.4l4-3.5h-.2z"/><path fill="#656565" d="M49.6 49.6l6.2 5c2.2 2 12 10.6 13 11.8 1 1.2 2 2.4 2 5.7 0 3.3.5 8.5 1.8 12 4 10.6 4.3 15.2 4.6 19.8.3 4.6 1 26.6 1 26.6s-1.4 1.2-6.5 1.8c-5.2.6-6.4 0-6.4 0s-1.5-14.3-2.3-19.4c-1.3-7.8-5-16-5-16s-.6 3.4-.3 5.5 4 19.3 5 22 1.6 6.2 1.6 6.2-4.2 6.6-15.6 6c-11.4-.3-18.2-4-19.6-11-1.3-7-1.6-24.4.2-34.2S39 65.7 44.2 60s5.4-10.4 5.4-10.4z"/><path d="M29.6 95.8s3.5-9 9-16.5c3.7-5.2 7.7-8.6 7.7-8.6l-.3-3.4 4-1.5L52.7 52l.5.6-1.6 14-4.6 1 1 3.6s-5.4 4.7-9 9.2c-4 5-9.2 15.4-9.2 15.4z" opacity=".2"/><path fill="#FBD7C7" d="M33.8 28c-3.8 2.7-4 10.2-4 15.3s.8 9.3 1.6 9.7c.8.4 2.4.6 2.4.6s0 5 1 5c1.3.4 8-2.7 11-6 3-3 3.5-3.7 3.5-3.7s4.3-8 3.6-14.2-8.6-14.6-19.2-7z"/><path fill="#762C07" d="M30.6 31c-.6 1 1.5.8 4.5 5.4 3.2 4.6 6.7 2.6 7.7 2.6.3 2.5 2.4 2 4.3 4.3 0 0 .7-2.5 2-2.6s1 4.2 1 4.2.2 1.6 1.2 2c1 .2 4.7-9 2.8-14.8-3-9.4-16.5-12.6-23.4-1.2z"/><path fill="#FFF" d="M11.5 104.2c.5-.5 3.6-.4 5.3 1.3 1.7 1.7 2.2 3.6 2 4-.3.5-2.5.3-5-1.4s-3-3.2-2.3-3.8z"/><path fill="#FBD7C7" d="M12 104.6c1.2-.4 3 0 4.3 1.3 1.2 1 1.7 2 1.6 3 0 .7-1 2.6-1.3 3.5-.2.8-2.7 4.2-3.5 5.3-.7 1.2-1.6 1.7-1.8 3.5s-.8 2.7-2 2.8c-1.4.2-6.2-2.8-5.3-7 1-4.3 2.7-6.8 3.7-8.2.5-.7 2.6-1.8 3.3-2.3.8-.6.6-1.7 1-2z"/></svg>