<svg xmlns="http://www.w3.org/2000/svg" viewBox="0 0 160 240"><path d="M24.2 230c11.2 6 44.5-14 58.5-22 14-8.2 50.5-32.4 39.2-39.3S83 181.3 68 190.3s-60 31-44 39.7z" opacity=".2"/><path fill="#262626" d="M102.5 171.2c-1 2.4-4.7 12.2-5 14-.3 1.5-.6 5.2 3.4 5 4 0 9.7-5.4 11-9.6l2.8-9h1s2.2-4.5 2-6.7c-.4-2.4-3.3-4-3.6-4.3-.3-.4-11.7 10.5-11.7 10.5z"/><path d="M116.2 162.2c-.2 2-.5 3-1.2 5.6-.8 3-3.3 13-6.2 16.5s-8 6.4-11 4l-.4-.3c.3 1.2 1.3 2.2 3.4 2 4 0 9.8-5.3 11-9.5l3-9h1s2-4.5 1.8-6.7c0-1-.7-2-1.4-2.6z" opacity=".5"/><path fill="#FBD7C7" d="M43 93.2h-1.3s-1.5-1.5-5.7-2-9 .4-10.2 1.8c-1.4 1.3-.6 5-.3 5.8.3.7 1 2.2 3 2 1.8-.3 6.7-.5 9 0 2 .8 3.3.7 5 .2 1.7-.5 3.2-1.3 3.2-1.3s-.3-2.4-1-3.8S43 93 43 93z"/><path fill="#262626" d="M32.7 210.8s-3 3-4.6 3.6-6.7.2-8 1-1.8 2-1.8 2-1 .4-1 1c.6 1.4 4 3 8.5 3.7 4.4 1 8.3 1 8.3 1l.3 1.3s10.4 2.2 11.2 1.7c.8-.5.4-3 .4-3l-.5-.2s1-1.4 1.4-2.7c.3-1.3.3-2.3.3-2.3l-14.6-7z"/><path d="M24.2 220c-2.5-.6-5-2-6-2.7-.4 0-1 .6-1 1 .6 1.5 4 3 8.5 3.8 4.4 1 8.3 1 8.3 1l.3 1.3s10.4 2.2 11.2 1.7c.8-.5.4-3 .4-3l-.5-.2c-1 0-7.8-1.3-9.6-1.3-2 0-8.6-.7-11.8-1.5z" opacity=".5"/><path fill="#656565" d="M53 112s-3 6.2-4.7 15.8c-1.8 9.5-6.2 29-7.5 39.7-1.3 10.7-2.3 28.8-4.3 33.7-2 4.8-5.3 10.8-6 11-.5.4 3.7.6 6.3 3.3s9.5 6.3 9.5 6.3 3.4-7.6 5.4-15S60 171 63 159s4.5-18.8 9-27 6.4-19.3 6.4-19.3L53 112z"/><path d="M53 112s-3 6.2-4.7 15.8c-1.8 9.5-6.2 29-7.5 39.7-1.3 10.7-2.3 28.8-4.3 33.7-2 4.8-5.3 10.8-6 11-.5.4 3.7.6 6.3 3.3s9.5 6.3 9.5 6.3 3.4-7.6 5.4-15S60 171 63 159s4.5-18.8 9-27 6.4-19.3 6.4-19.3L53 112z" opacity=".3"/><path fill="#656565" d="M62.2 113.6c.2 2.4 5.5 14.3 8.3 18 3.3 4 6 8.7 8.7 13.6 2.8 5 3.6 7 8 10.2 4.6 3.3 10.6 8.3 12 11.5 1.6 3 2.2 6.5 4.5 7s10.3-3.5 12.2-7.4c1.8-4 1-4-.4-6.4-1.4-2.5-4.6-9.8-9.2-14.5-3.3-3.3-5.5-5-7-10-1.3-5-.5-11.7-2.7-15-2-3-7.2-12-7.2-12l-27.3 5z"/><path d="M62.2 113.6c.2 2.4 5.5 14.3 8.3 18 3.3 4 6 8.7 8.7 13.6 2.8 5 3.6 7 8 10.2 4.6 3.3 10.6 8.3 12 11.5 1.6 3 2.2 6.5 4.5 7s10.3-3.5 12.2-7.4c1.8-4 1-4-.4-6.4-1.4-2.5-4.6-9.8-9.2-14.5-3.3-3.3-5.5-5-7-10-1.3-5-.5-11.7-2.7-15-2-3-7.2-12-7.2-12l-27.3 5z" opacity=".1"/><path fill="#FFF" d="M55.4 45.5c2.4.2 11.6-1 14 .3 2.6 1.2 2 5.2 2 5.2S57.5 64.5 56.8 73.5s.3 28.3.3 28.3-8-15.3-7.7-25.7c.5-17.5 5.8-30.5 5.8-30.5z"/><path fill="#656565" d="M58.6 48c-2.8 3.3-7.6 10-8 24.2s6 23.5 7.5 26.2 4.7 26.2 4.5 28c-.2 2-12.7-1-13.5-3.2-1-2 2-9.7 2-21.2s-3.4-33.8-2.4-41.4c1-7.6-.3-11 2.7-15.4 3-4.5 7.3 2.8 7.3 2.8z"/><path d="M58.6 48c-2.8 3.3-7.6 10-8 24.2s6 23.5 7.5 26.2 4.7 26.2 4.5 28c-.2 2-12.7-1-13.5-3.2-1-2 2-9.7 2-21.2s-3.4-33.8-2.4-41.4c1-7.6-.3-11 2.7-15.4 3-4.5 7.3 2.8 7.3 2.8z" opacity=".1"/><path fill="#656565" d="M69.5 45.8s2 2.3-1.6 6c-3.6 3.5-9.3 7-11.8 18.4s-.2 25.3 1.3 30.2c1.5 5 6 23.3 7.2 26 1 3 4 6 10.5 5.7 6.6-.3 21.8-6 23.3-9.4 1.5-3.4-1-6-2.6-9-1.8-2.7-7.8-20.5-8-23-.2-2.4.6-6.6.6-9 0-3-.4-8.4-.5-12 0-3.6-.2-7.8-3-11.6-3-3.8-9.6-9-11.6-10.4s-4-1.8-4-1.8z"/><path d="M52.7 60l3-2.8 1 .5 1 4.4 1.8-1.3-2 2.6-1-5-.7-.4-3.4 3M57 88.7c-.2-2.8-.8-9.2 1-15.2 2.3-7 5-9.3 5-9.3v-2.5l5-2.2s.4-3.4 2-5.5c1.8-2.4 3.7-4.6 3.7-4.6l-3.3 5c-1.2 2-1.4 5.8-1.4 5.8L63.5 62l1 2.5s-4.6 4-6.5 12c-1.3 5.7-1 12.2-1 12.2z" opacity=".2"/><path fill="#CC291F" d="M55 61V58l.7-.5h1l.7 3.3-.7 1s-1.6 8.6-1.7 14 1.4 18 1.4 18h-1S50 83.3 51 75 55 61 55 61z"/><path fill="#FBD7C7" d="M53.8 26c-4 2.7-4 10.5-4 15.7 0 5.2.7 9.5 1.5 10s2.4.5 2.4.5 1.3 3 1.4 5c.2 1.2 8-2 11.2-5.2s3.3-4.6 3.3-4.6 4.4-8 3.7-14.4-8.5-15-19.4-7z"/><path fill="#762C07" d="M50.5 29c-.6 1 1.6 1 4.6 5.5 3.2 4.7 7 2.6 8 2.6.2 2.6 2.3 2.2 4.3 4.5 0 0 .7-2.6 2-2.6 1.5-.2 1 4.2 1 4.2s.3 1.8 1.3 2 4.8-9 2.8-15c-3-9.5-17-13-24-1.2z"/><path fill="#FFF" d="M42 92.4l21-5 8.3 11-25.8 4s-3.3-1.4-4-3.5c-.5-2-1.2-6.3.4-6.6z"/><path fill="#656565" d="M43 91.5l25.4-6 10 13.2s-28.8 4.6-31 4.7c-2.4 0-4-1.5-4.8-4-.7-2.4-1.5-7.5.4-8z"/></svg>