<svg xmlns="http://www.w3.org/2000/svg" width="512" height="512" viewBox="0 0 512 512"><path d="M434.2 333c-9.8-16-35.7-23.2-50.3-26-26.6-5-60.8-4.7-77.4 7.7-5.5 4-8.2 12.6-8.8 27.5v5.6c-28.3-10.8-54.3-27-76.5-47.6l-9.8-9.7c-20.6-22-37-48-48-76h5.8c15-.6 23.5-3.3 27.6-8.8 12.4-16.4 12.8-50.3 7.7-76.6-2.8-14.5-10-40.4-26.3-50.2-16.2-9.8-41.4-7.4-51.4-6-20.7 3-38 10.4-46 19.6-7.2 8-9.7 31-10.5 40.6v.7c1.2 77.5 31 151.4 84 208.3v.2l15 14.8v.4C227 410 301.2 439 379 441c.3 0 .5-.3.7-.3 9.6-.7 32.6-3.4 40.7-10.5 9.3-8 16.7-25.3 19.7-46 1.6-10 4-35-5.8-51zm-10 49c-2.3 16.2-8 30.7-14.3 36-3 2.4-17.3 5.4-31.2 6.5-73.7-1.2-144-29.3-198.2-79L166 330.8C116 277 87.8 207 86.5 134c1-14 4-28.2 6.4-31 5.3-6.2 20-12 36.3-14.3 17-2.5 32.8-1 41 3.8 7.7 4.7 15 20 18.7 39.7 5 26 3 53.2-4.7 63.7-3 2-17 3.2-30.3 2.4-1.5-.4-3-.3-4.5.2-1.3.4-2.4 1.2-3.3 2-1.3 1.4-2 3.2-2.3 5-.2 1.8.2 3.4 1 4.8 11 32.3 28.8 62.2 51.8 87.7.3.5.6 1 1 1.3 2.3 2.6 4.7 5 7.2 7.5l7.5 7.2 1.2 1c25.6 22.8 55.7 40.4 88.2 51.4 1.3.8 3 1.2 4.6 1 2 0 3.7-1 5-2.2l.4-.4c.8-1 1.4-1.8 1.7-3 .5-1.4.5-3 .2-4.4-1-13 .2-27 2.4-30 10.6-7.8 38.3-9.8 64.5-4.7 19.6 3.8 34.8 11 39.5 18.7 5 8 6.3 23.6 3.8 40.6z"/></svg>
