<svg xmlns="http://www.w3.org/2000/svg" viewBox="0 0 48 48"><title>file</title><path d="M33,29H15a1,1,0,0,0,0,2H33a1,1,0,0,0,0-2Z" fill="#fecc00"/><path d="M33,37H15a1,1,0,0,0,0,2H33a1,1,0,0,0,0-2Z" fill="#fecc00"/><path d="M14,22a1,1,0,0,0,1,1H33a1,1,0,0,0,0-2H15A1,1,0,0,0,14,22Z" fill="#fecc00"/><path d="M40.6,11.2,30.8,1.4A1,1,0,0,0,30,1H11A4,4,0,0,0,7,5V43a4,4,0,0,0,4,4H37a4,4,0,0,0,4-4V12h0A1,1,0,0,0,40.6,11.2ZM31,4.4,37.6,11H31ZM39,43a2,2,0,0,1-2,2H11a2,2,0,0,1-2-2V5a2,2,0,0,1,2-2H29v9a1,1,0,0,0,1,1h9Z" fill="#84c240"/></svg>