<svg xmlns="http://www.w3.org/2000/svg" viewBox="0 0 48 48"><title>mac</title><circle cx="24" cy="31" r="1" fill="#fecc00"/><rect x="3" y="27" width="42" height="2" fill="#fecc00"/><path d="M43,4H5A4,4,0,0,0,1,8V31a4,4,0,0,0,4,4H18.8a11.5,11.5,0,0,1-4.4,7H12a1,1,0,0,0,0,2H36a1,1,0,0,0,0-2H33.6a11.5,11.5,0,0,1-4.4-7H43a4,4,0,0,0,4-4V8A4,4,0,0,0,43,4ZM30.6,42H17.4a12.7,12.7,0,0,0,3.5-7h6.3A12.7,12.7,0,0,0,30.6,42ZM45,27v4a2,2,0,0,1-2,2H5a2,2,0,0,1-2-2V8A2,2,0,0,1,5,6H43a2,2,0,0,1,2,2Z" fill="#84c240"/></svg>