<svg xmlns="http://www.w3.org/2000/svg" viewBox="0 0 160 240"><path fill="#262626" d="M104 132c1.7 2 8.5 12 10 14 2 3 2.7 6.3.4 9-2.2 2.7-5.4 3-8 1.3-2.8-1.6-7.6-9.7-7.6-9.7L104 132z"/><path fill="#FFF" d="M104.6 136.6c2 2.6 7 10 8.5 12.6 1.4 2 1.8 5.2-1.6 7-3.4 1.6-6.7-1-8.2-3.4-1.6-2.2-6.5-9.8-6.5-9.8l8-6.4z"/><path d="M111 196.3c12.6 7 18.6 17 8 25.4S90.5 232 76.4 224s-5.8-16 3.7-22.2 19.3-11.8 30.8-5.5z" opacity=".2"/><path fill="#06547A" d="M40 124.3c-.4 5.2-2 11.3.6 20.7 2.5 9.4 4.8 21 7.7 23.7 2.6 2.5 7.6 3.3 13 1 5.4-2.5 13.7-6.8 17.7-7.2s18.6-4.8 18.6-4.8-3.8-16.2-7-16c-3 0-28 7.6-28 7.6l-4-22-18.5-3z"/><path d="M40 124.3c-.4 5.2-2 11.3.6 20.7 2.5 9.4 4.8 21 7.7 23.7 2.6 2.5 7.6 3.3 13 1 5.4-2.5 13.7-6.8 17.7-7.2s18.6-4.8 18.6-4.8-3.8-16.2-7-16c-3 0-28 7.6-28 7.6l-4-22-18.5-3z" opacity=".2"/><path fill="#06547A" d="M50.5 131s3 15 5 17.4 7.2 2.6 7.7 4.3c.5 1.7 13 22.7 16.2 25 4.2 3.2 12.4 3 14.8-1.3 2.2-4.2 3-14.3 5.6-19.8s5.6-7.6 7.2-9.6c2.6-3.3 1-17.5-6.2-18.7-7.2-1.2-8.2 5.2-10 8.2s-4.6 9-4.6 9l-7.5-18-4.7-9L50.5 131z"/><path fill="#FBD7C7" d="M41.2 25.6c.8 0 6.4.8 8.5-.7 1.2-1 1.5-3 1.5-4s-.5-4.3-2.4-5c-1.8-.5-6 0-8 1.3-1.6 1-2 2-3.3 3.4C36.2 22 35 23 34.2 25 33 27.4 31 35.2 28.5 39c-2.6 4-.6 6.7 1.6 9.4s11.3 11 11.7 12.2c.4 1 16.2-1.6 14.5-4.8-1.6-3.2-6-4.6-8-5.2s-3-1-4-2.5c-.8-.8-2-2.4-3.8-3.7l-3-2s2.8-4.5 3-8.8l.8-8z"/><path fill="#E5E5E5" d="M60.2 58.7s-2.6-3.3-5.3-5-5-2.5-5-2.5-2 1.5-4.3 4c-2.2 2.3-4.3 5.3-4.3 5.3s-3.4 6.5-3 15.7 3.7 23 3 28.3c-.7 5.3-1.8 18.4-1.8 20.6 0 2.3 5.8 8.4 15.3 8.2 9.3-.2 22-4.4 22.2-9.2s-2.5-4.8-2.7-9.4c-.3-4.6 1-20.4 8-29.3 5-6.5 4.2-7.2 8-9.4 3.7-2.3 0-13.5-3.8-13.8s-11.6-.5-15.3 0c-3.6.5-11.2-3.5-11.2-3.5z"/><path fill="#FBD7C7" d="M99 60.7s-1.2-3.2-2-9.2c-.6-6-.4-8.2-2-9.7s-4.3-1.4-4.8-2.6c-.5-1.2-2.2-1.7-3-3-.7-1.6-.6-3.5.8-4.4 1.4-1 4.5-2.3 5.8-1.6 1.3.6 1.8 1.3 2.6 2 1 1.2 1.8 3 3.4 5.8 1.6 2.7 7.8 16.7 9.4 20.2 1.6 3.5 2.8 7.3 0 10.4-2.8 3-7.3 2-11 3.3-3.7 1.3-7.2 4-8.8 4-1.6 0-6.5-1.6-7-8s4.7-5.6 5.7-5.5 1.5.2 4-1 7-.8 7-.8zM71 59.4c.6-.8 4-4 5.4-4.3 1.5-.2 3-.4 4.4-1.8 1.7-1.7.7-3 .7-3s3.3-3.4 2.2-9c-1-6-10.2-11.7-17.4-6.4-2.8 2-9.5 12.7-9 15 .5 2.4 1.6 3 1 4.2-.8 1.3-1.5 5-2 5.4-.6.3-7 6.2 1 9.8 8.5 3.8 12-2.7 13.7-4.2 2-2 3-2.7 3-2.7s-4.5-.2-3-3z"/><path fill="#825012" d="M83.7 41c-.8-4-5.7-8.3-11-8.3.3.6 1 1.4 1.7 2 2.7 2.4 4.2 1.2 5.2 4.3 1 3-3.5 10.2-3.5 10.2l1.3.8s3-1.5 4.2.3c.4-.5 3.2-4 2.2-9.2z"/></svg>
