<svg xmlns="http://www.w3.org/2000/svg" id="Layer_1" viewBox="0 0 160 240"><path d="M89.4 217.6c-14 7.4-40.2 21-54 13.7-13.7-7.4 20-17.7 38-28.7s33.6-23 50.7-13.5c15.4 8.7-20.5 21.2-34.6 28.6z" fill-opacity="0.2"/><path d="M64.4 129s-2.2.4-4.3-.4c-2-.8-3-3-3.7-6-.6-3 .8-5.4 1.6-7.4s3.3-10.7 5.3-16.5l1 30.2z" fill="#FBD7C7"/><path d="M58 210.4s-4 2.6-6 5.3c-2 2.6-4.5 3.7-7.8 5.2-3.3 1.3-5 2.2-5 4-.2 1-1 3.4 2 4.6 1.2.5 3.4 1 5 1 3-.5 6-2.2 8-3.6 4.8-3.5 8.2-4.4 11.8-5.4 4.6-1.3 3.4-3.8 3.5-6.6L58 210.4z" fill="#262626"/><path d="M52.5 214.5c-1.3 2.4-4 4.6-7 6s-5.6 2.3-6 4S42 228 45 228c3.7 0 10.8-5.8 13.6-7.6 2.4-1.5 10.3-3.7 10.3-3.7s-15.3-4.3-16.5-2z" fill="#ffffff"/><path d="M111.2 188.8c-3 0-9.6 4.2-10.2 6.3-.6 2.2-4.4 6-7.5 7.5-3.2 1.5-2.8 1.7-2.6 3.7 0 2 0 1.8 3.8 2.7 3.8.8 12.7-2.2 15-3.8 2-1.6 8-11.8 8-11.8s-3.7-4.5-6.6-4.6z" fill="#262626"/><path d="M103.4 191.2s-3.8 5.5-5.3 8c-1.4 2.2-5.5 3.6-6.4 4.5s-.6 1 3 1.7c4 .7 11-1.8 13-2.7 2-1 4.6-6.8 7.5-9l-11.6-2.5z" fill="#ffffff"/><path d="M76.5 128l3 17.4s-1.4 2.5-2.6 5.4c-2 4.3-7.2 17.4-8 21-1 3.7 1.6 33.4 2 37.5s0 7.7-.4 8.8-5 1.6-9.3 1.3-9.8-2.4-10.5-3.7c-.6-1.3.5-4.2 2-6s1-3.2.7-6.2c-.2-4-2-19.4-2.8-23s-2-9-1.6-11.2c.4-2.5 3.6-13.4 5.8-20.6s6.7-20 8-23.6l13.7 3z" fill="#06547A"/><path d="M76.5 128l3 17.4s-1.4 2.5-2.6 5.4c-2 4.3-7.2 17.4-8 21-1 3.7 1.6 33.4 2 37.5s0 7.7-.4 8.8-5 1.6-9.3 1.3-9.8-2.4-10.5-3.7c-.6-1.3.5-4.2 2-6s1-3.2.7-6.2c-.2-4-2-19.4-2.8-23s-2-9-1.6-11.2c.4-2.5 3.6-13.4 5.8-20.6s6.7-20 8-23.6l13.7 3z" fill-opacity="0.2"/><path d="M94.2 114.2s2.7 1.2 5 8c3.2 9.2 4 14.2 4.7 19.7s1.5 14.6 2.3 19.5c.4 3 1.8 4.6 3.5 6.8 2 2.8 4.4 7.3 6.4 9.7 2 2.3 1.6 6.4 1.6 6.4s2 3.4 2 5.8-2.3 6-8 7c-6 1-12-1.8-12-1.8s.7-3.5 1.4-5.2c.7-1.7-.2-3.5-1.4-5-1.3-2-7.3-9.6-9.5-12.3-2.6-3.3-4.6-6-7.8-17-1.2-4.2-2.3-9-3-10.7s-3.6-13.5-3.6-13.5L94 114.2z" fill="#06547A"/><path d="M73.5 56.6l-8 7.3s-.4 12 8.2 13.4S89.4 66 89.4 66s-2-1-4.7-3.3C82 60.3 82.3 58.4 82 56l-8.5.6z" fill="#FBD7C7"/><path d="M74.3 75c8 2 14-10 14-10l4 2c3.3 1.5 6.6 3 8.8 6.6 2 3.2 1 10.7.7 11.8-.2 1-7.2 1.2-7.2 1.2s6 30 4.8 35.2-16.6 11.5-24 11c-9-.7-14-3.8-13.8-6.4.7-6 1-18.8 1-22.8-.2-3.7-.6-8.8-3.4-12.8s-2.6-10.8-2.4-14-.3-4.8-.7-8c-.5-3.4 3-6.3 5.8-7.2 2.8-.8 6.8 0 6.8 0s-5 11 5.7 13.5z" fill="#E5E5E5"/><path d="M90.2 94.2c1.4 6 4.8 11.5 5 12.6s-2 4.8-3.5 9c-1.5 4-2.5 10.7-4 14s-1.4 2-3.2 3.2-2.2 2-3.4 4.3c-1 2.4-.3 5.5-.3 5.5s-.5 1.8-1.5 2.8-3.2 2.2-2.3 2.8c.7.5 3-1 3-1s.3 1 1.3 1 2-.6 2-.6 1.3 1 3 .6c1.6-.5 3-1 4.5-2.3s1.2-1.6 1.3-3.8c0-2.3.7-4.6 1.3-7 .5-2.2 8.6-20.4 10-23.4 1.3-3 1.3-5.3.8-7l-2.5-15.7c-.3-1.2.2-3.4.2-3.4s-3 .8-5.6 1l-7.6-.2s.2 1.7 1.8 7.8zM62.8 52c-.2 3.8 2.3 16 5.5 16.3 3.2.4 7.8-2.7 10-5 2-2.2 3-5.3 4.7-7 1.8-1.5 2.8-4.8 2.5-6-.3-1.3-1.3-1-1.3-1s.2-2.5 0-6-3.2-7-8.6-7.2C63 35.5 63 48 62.8 52z" fill="#FBD7C7"/><path d="M64.2 43.2l1-.3c1.2 0 1 2.3 3.7 3 2.8.5 4.7-2.2 7-1.4s3.6 8.3 3.6 8.3l1.4.4s0-.7 1-2.4c.7-1 1.7-1.4 2.3-1.7.2-1 .4-3.3 0-6-.3-4-3.3-7.2-8.7-7.5-7-.4-10 3.4-11.4 7.4z" fill="#825012"/></svg>
