<svg xmlns="http://www.w3.org/2000/svg" viewBox="0 0 80 240"><path d="M64.8 232c19.4-9.4 1.8-22-17.4-25.3-8.4-1.5-13.5-15-34.6-1.6-17 11 0 18 8.6 22 12 5.6 25.3 13.7 43.4 5z" opacity=".2"/><path fill="#FBD7C7" d="M23.3 93.5s-2 9.7-3 12.8c-1.3 3-2 7.7-1.6 11s2 10.5 2.7 11.6c.7 1 3.2 3.5 4 4 .8.3 2.4-15 2.4-15l-4.5-24.5z"/><path fill="#E5E5E5" d="M19 108.7l4 2.2 1.7-12-1-15s-2.2 5.6-3 11.5c-1 5.8-.8 9-.8 9l-1 4.2z"/><path fill="#825012" d="M27.2 201.6s2.2 3 6.2 2.3c4-.6 8-2.2 8-2.2s1 6.3-.8 8c-1.8 1.5-8.5 1.8-11.4 3.2-3 1.4-7 4.2-11.2 4.5-9.2.7-7.8-6.8-3.6-8.7 3.3-1.4 6.7-3 8.8-4.2 2-1 4-3 4-3z"/><path d="M41.6 207.4c-2.7 1.3-8.3 2.4-11 3-3.5.6-9.8 5.7-14.2 5.8-3 0-5-1.3-5-4-1 2.7.5 6 6.7 5.5 4.4-.3 8.4-3 11.3-4.5 3-1.4 9.6-1.6 11.4-3.3.5-.7.7-1.6 1-2.6z" opacity=".4"/><path fill="#825012" d="M54 214.6s2.3 2 5.6 1.7c3.3-.4 8-3.8 8.2-2 .3 1.6 2 5 .6 6.2-1.4 1-9 5.7-10.4 7-1.4 1.5-5.6 5-10 5.4-4.7.4-9-1.4-9-5 0-4 6.5-6.8 9.3-8.7 2.7-2 5.6-4.7 5.6-4.7z"/><path d="M58 227.5c1.3-1.4 9-6 10.3-7 .7-.6.6-1.7.4-2.8-2 1.7-6 3.7-9.5 6-5.2 3.2-6.2 7.3-13.4 7.6-5 .2-7-2.2-7-4.6v1.2c0 3.4 4.3 5.3 9 4.7 4.5-.4 8.7-3.8 10-5.2z" opacity=".4"/><path fill="#BAA794" d="M23 109.3c-1 4-.7 15.3 0 21.4 1 6 1.8 19 3.3 31.7 1 8.5-.7 32-2 37.4-.6 3.7-3.3 6.2 1 7.7 5 1.7 10 2 15.2.5 2.2-.6 1.7-2.8 1.8-6.3 0-4.7 1.5-15.8 2-20s.6-9.3.8-14c.4-4.5 1.8-20.6 2.3-24.3.5-3.7.5-32.6.5-32.6l-25-1.5z"/><path d="M23 109.3c-1 4-.7 15.3 0 21.4 1 6 1.8 19 3.3 31.7 1 8.5-.7 32-2 37.4-.6 3.7-3.3 6.2 1 7.7 5 1.7 10 2 15.2.5 2.2-.6 1.7-2.8 1.8-6.3 0-4.7 1.5-15.8 2-20s.6-9.3.8-14c.4-4.5 1.8-20.6 2.3-24.3.5-3.7.5-32.6.5-32.6l-25-1.5z" opacity=".2"/><path fill="#BAA794" d="M30.4 109.5s-1.5 8.2 2.2 12.8c3.7 4.6 8.6 6.7 8.5 10 0 3.2 3 21.2 5 27.3s2.7 14.4 3.4 20.2c.7 5.8 1.5 22 1.2 26.2-.3 5.6-1.8 10.8-2.2 12.8-.3 1.4 5 3.5 8.2 3.7 5.4.3 8.3-1.5 10.4-3 2-1.3 1.8-1.5 1.7-4.6 0-3.2-.7-32-1.2-39s2.4-39 2.2-45.3c-.5-11.6-4-22-4-22l-35.3.8z"/><path fill="#E5E5E5" d="M49 46c-8.3-.4-15.2-2.3-18 2.5s-2.8 8-4.2 10.2-4.3 8.8-4.2 13.4c0 4.7 1.4 7.4.8 10-.7 2.6-1.5 11.7-1.6 15.2-.2 6.8-.6 13 .5 14.8 1.7 2.6 16.6 4 27.2 2.8 12-1.4 20-5 20-6.2s-4.8-13.4-5.6-15c-6.7-13.8 10-18.4 10-19-.2-2 .6-8.7 0-11.6-.4-3-4-7.6-6.6-10-2.6-2.5-6.8-6.5-9.7-7.3C55 45 49 46 49 46z"/><path fill="#FBD7C7" d="M58 78.2s5.3.4 9.2-.8 6-2.4 6-2.4 1.3 13 2.3 15.6c1 2.7 1 7.3-.5 12.6-1.4 5.3-4 23.6-4 26.4 0 2.8-.2 6.3-.7 8.3s-2 5.7-4.5 7.2c-3 1.7-6.4 1.4-7.6.4-2-1.5 2-7.3 1-8-.7-1-2.3-.7-2.8.6s-2.4 2.7-3.4 2c-1-.7.2-1.8.8-3 .6-1 2-3.8 3.4-4.7s4-1.4 4.6-3.8c.6-2.5 0-13 .6-18.5s3-10.5 2.8-11.6c0-1-3.6-9.2-5.2-14L58 78zM35.5 24.5c-2.8 4.3-1.3 14.8-1 17.5.5 2.6 1.2 5.4 3 6.2 2 .7 3.7 1.5 3.7 2.7 0 1-3 3.8-1.7 4.6 1.3.8 8.5 1 14.5-1.5 5.6-2.2 7.2-5 6.4-6-.7-.8-4.2-2.8-4.2-5.8s3-7.8 3.2-12.4c0-9-13.3-14.6-21-8.3-1 .7-2 1.7-3 3z"/><path fill="#999" d="M49 20c5.7 3.2-3.7 7-1.5 9 2 2 2 7.4 3 9 1 2.2 2.3-2.2 3.4-3.3 1-1 2.7-1.2 3.2.3s-.4 3.7-.5 4.3c1.6-.3 3.7-5.7 3.3-11.4-.4-7-10-13.3-20.6-7.4-2 1.2-2.8 2.5-1.7 1.6 2-1.6 8-4 11.4-2z"/><path d="M57.6 78.2s2.8 14 2.7 18-4.3 17.6-4.3 17.6l10-2.4 2.8-15.8-11.2-17.4z" opacity=".2"/><path fill="#E5E5E5" d="M61.2 121l.6 5.2-.8 3.3s5.2 0 7 .8l3.3 2V127s4-14 5.2-19c1-4.7.3-13.6 0-15.2-.2-1.6-2-19.6-2-22.8s-.5-6.5-.5-6.5L54.5 70s7.2 18.5 8 23c.6 4.6-2.2 19.2-1.3 28z"/></svg>