<svg xmlns="http://www.w3.org/2000/svg" viewBox="0 0 160 240"><path d="M43 231.8c10.4 5.6 33-3.3 48.5-10.8 13.4-6.4 41.7-19 31.3-25.2-10.4-6.3-28 1.4-44.7 9-14.4 6.7-49.4 19-35 27z" opacity=".2"/><path fill="#825012" d="M55.5 214.7c-1.7 2.5-6 6.6-8.2 7.6-2.2 1-6 .4-6.8 2.8-.7 2.5.6 4.6 4.5 5.3 4 .7 7.7 0 9.7-1 2-1 7.8-3 11-2.7 3 .2 4.2-1.4 4.3-3s-.7-8.3-.7-8.3l-13.8-.6z"/><path d="M54.7 229.2c2-1 7.8-3 11-2.7 3 .2 4.2-1.4 4.3-3v-1.2c-.6 1.2-1.7 2.3-3.2 2.4-3.2 0-4.2.3-7.4 1.3s-7.8 3.7-13.3 3c-4-.6-5-2.2-5.2-4.3 0 0 0 .3-.2.4-.7 2.5.6 4.6 4.5 5.3s7.7 0 9.7-1z" opacity=".4"/><path fill="#825012" d="M111.4 188.3s-.4 1.2-2.3 4.6c-1.8 3.3-4.7 5.3-6.2 6.4-1.5 1-3.3 2.7-3 4.3 1.7 7 16 5 19.7-3.5 1.5-3.5 7.5-10 6.6-12.5-.7-2.4-2.2-5-3.6-5.3s-11 6-11 6z"/><path d="M119.4 200c1.5-3.4 7.5-9.8 6.6-12.4 0-.4-.3-.8-.5-1.2-1 3-4.7 7.4-6 10.5-4.6 11-16 11.2-19.7 6v.7c1.6 7 16 5 19.6-3.6z" opacity=".4"/><path fill="#BAA794" d="M61 118.4s-3 6-4.3 13c-1.2 7.3-2.7 31.5-2.5 39.2.4 20.2-1.3 44.2-2 46-.4 1.5 7 2.4 10.3 2.4 3.4 0 8.6.3 8.7-1.4 0-1.7.6-22.6 1-30.7.2-8.2-1.7-15.3.6-20.6s8.3-20.5 9-26.4c.6-6-1-15.5-1-15.5l-19.7-6z"/><path d="M61 118.4s-3 6-4.3 13c-1.2 7.3-2.7 31.5-2.5 39.2.4 20.2-1.3 44.2-2 46-.4 1.5 7 2.4 10.3 2.4 3.4 0 8.6.3 8.7-1.4 0-1.7.6-22.6 1-30.7.2-8.2-1.7-15.3.6-20.6s8.3-20.5 9-26.4c.6-6-1-15.5-1-15.5l-19.7-6z" opacity=".2"/><path fill="#BAA794" d="M71.2 121.6c1 3.4 6.6 9.4 8.3 14.4s2.8 12.6 4.3 17.2c1.6 5 5 9.8 6.3 14.8s4 7.2 7 9.2c3 2 7.5 5 9.7 9 1.7 3 1.2 4.5 3.2 5.6 2 1.2 7.5.2 10.5-2 3.3-2.5 5-4.5 4.4-6.5-.8-1.8-3.5-10.4-11.2-18-3.4-3.5-5-5-5.5-6-.4-1 1-12.3 1.4-18.5.3-5.2 0-20.3-3.7-25l-3.8-4.4-14 6.6c-8 3.8-17 3.6-17 3.6z"/><path fill="#E5E5E5" d="M81 51c-6-1-15-1-17 4.2s-7 20.6-7 24c-.4 3.4 1 8 1.3 11.7.6 6.5 1 16.6.7 24.3-.2 4.2-2 8.8-.5 9.3 1.3.5 12.6 3 23.2 1.6 13-1.8 25-4.8 26-7.5.7-2-2.4-31.6-1.7-36.4.6-4.2.4-9-1.4-13-1.8-3.8-6-7.8-11.4-12C89.2 54 81 51 81 51z"/><path fill="#FBD7C7" d="M90.6 86.8s3 0 7.7-1.2c5-1.2 6.3-2 6.3-2s1.6 6.6 2 10c.6 3.4.6 8.7 1 10.5.6 2 1 5.3-2.3 9.8-3 4.5-17.3 21-20 24.5-3 3.4-7.8 8-10.8 8-3 0-6.6-1-8-2.4s-1.5-4.2-.3-5c1-.8 4-1.4 4-1.4l.7-1.6h-1.4s-1.4 1.4-2.5 1.6 0-2.5.4-3c.3-.8 2.5-2 5.4-2.5s6.2 1 7.6-1c1.4-2.3 6.2-12.3 9.2-16 3-3.7 7-7.5 7-8s-2.7-5-4-10.8l-2-9.4zM68 34.6c-2.7 4.4-1.2 15-.8 17.5.4 2.7 1 5.6 3 6.3 2 .7 3.6 1.5 3.6 2.7s-3 4-1.7 4.7c1.4.8 8.6 1 14.6-1.5 5.6-2.3 7.2-5 6.5-6-.7-1-4-3-4-6s3-7.8 3-12.3c.2-9.2-13.2-14.7-21-8.4-1 .7-2 1.7-3 3z"/><path fill="#999" d="M81.7 30.2c5.6 3-3.8 7-1.6 9 2 1.8 2 7.3 3 9 1.2 2 2.4-2.3 3.5-3.4 1-1 2.8-1.2 3.3.3.5 1.6-.4 3.8-.5 4.4C91 49 93 43.7 92.6 38c-.4-6.8-10-13.3-20.7-7.3-2.2 1.2-3 2.5-1.8 1.6 2-1.6 8-4 11.5-2z"/><path d="M91.6 101.5c.2 2 1 5-1.8 8.4-4 5-9.3 12.5-12.2 16.6 1.3 0 2.7-.2 4-.4 13-1.8 25-4.8 26-7.5.4-1-.3-9.7-1-18.4L90 87.3l1.6 14.2z" opacity=".2"/><path fill="#E5E5E5" d="M106 77.3c.3 2.7 1.8 13 2.6 17.7s2.4 9.2 2 11.4-1.7 8.7-5 12.8c-4 4.7-9.7 11-12.8 13.7-1.8 1.4-4.4 2.3-4.4 2.3l-2.6 3-6.5-7 2-2s4.3-10 7-13.3l7-9.2S92 98 91.3 95s-1.6-9.7-1.6-9.7l16.4-8z"/></svg>