<svg xmlns="http://www.w3.org/2000/svg" viewBox="0 0 48 48"><title>profile</title><rect x="23" y="9" width="2" height="2" fill="#84c240"/><path d="M43,13H28V9a4,4,0,0,0-8,0v4H5a4,4,0,0,0-4,4V38a4,4,0,0,0,4,4H43a4,4,0,0,0,4-4V17A4,4,0,0,0,43,13ZM22,9a2,2,0,0,1,4,0v6a2,2,0,0,1-4,0ZM45,38a2,2,0,0,1-2,2H5a2,2,0,0,1-2-2V17a2,2,0,0,1,2-2H20a4,4,0,0,0,8,0H43a2,2,0,0,1,2,2Z" fill="#84c240"/><path d="M19,36s0-1,0-1l1.1-.8a4.2,4.2,0,0,0,1.5-2.6,39.5,39.5,0,0,0,.5-4.2c0-3.2-1.3-6.4-6-6.4h-.1c-4.7,0-6,3.2-6,6.4a39.5,39.5,0,0,0,.5,4.2,4.2,4.2,0,0,0,1.5,2.6l1.1.8s0,1,0,1c-4.2.1-5,1.8-5,1.8A10.8,10.8,0,0,0,6.8,40H9a4.9,4.9,0,0,1,.6-1s.6-.9,3.2-1h0A2.2,2.2,0,0,0,15,36c0-.3,0-1.5,0-1.5h0s0-.8,0-.8a11.2,11.2,0,0,1-2-1.4,3,3,0,0,1-.7-1.4,33.9,33.9,0,0,1-.2-3.7c0-2.1,1-4.3,4-4.3h0c3,0,4,2.2,4,4.3a33.6,33.6,0,0,1-.2,3.7,3,3,0,0,1-.7,1.4,11.2,11.2,0,0,1-2,1.4s0,.8,0,.8h0s0,1.1,0,1.5a2.2,2.2,0,0,0,2.2,2h0c2.6.1,3.2,1,3.2,1a4.7,4.7,0,0,1,.6,1h2.2A10.8,10.8,0,0,0,24,37.8S23.2,36,19,36Z" fill="#fecc00"/><path d="M40,24H28a1,1,0,0,0,0,2H40a1,1,0,0,0,0-2Z" fill="#84c240"/><path d="M34,34H28a1,1,0,0,0,0,2h6a1,1,0,0,0,0-2Z" fill="#84c240"/><path d="M37,30H33a1,1,0,0,0,0,2h4a1,1,0,0,0,0-2Z" fill="#84c240"/><path d="M28,32h2a1,1,0,0,0,0-2H28a1,1,0,0,0,0,2Z" fill="#84c240"/></svg>