<svg xmlns="http://www.w3.org/2000/svg" viewBox="0 0 50 50">
  <path d="M34.1 12.6H15.5c-1.6 0-2.9 1.3-2.9 2.9v19c0 1.6 1.3 2.9 2.9 2.9h19c1.5-.1 2.9-1.3 2.9-2.9v-19c-.1-1.5-1.8-2.8-3.3-2.9zM25 20.5c2.5 0 4.5 2 4.5 4.5s-2 4.5-4.5 4.5-4.5-2-4.5-4.5 2-4.5 4.5-4.5zm9.1 11.9c0 .9-.7 1.6-1.6 1.6H17.6c-.9 0-1.6-.7-1.6-1.6v-9.5h1.9c-.2.7-.3 1.3-.3 2.1 0 4.1 3.3 7.4 7.4 7.4s7.4-3.3 7.4-7.4c0-.7-.1-1.4-.3-2.1H34v9.5zm0-15.6v2.5c0 .4-.4.8-.8.8h-2.5c-.4 0-.8-.4-.8-.8v-2.5c0-.5.4-.8.8-.8h2.5c.4-.1.8.3.8.8z"/>
  <path d="M25 1C11.7 1 1 11.7 1 25s10.7 24 24 24 24-10.7 24-24S38.3 1 25 1zm0 43C14.5 44 6 35.5 6 25S14.5 6 25 6s19 8.5 19 19-8.5 19-19 19z"/>
</svg>
