<svg xmlns="http://www.w3.org/2000/svg" viewBox="0 0 50 50">
  <path d="M39.3 16.6c-1.1.5-2.6 1.1-3.8 1.2 1.2-.7 2.4-2.4 2.9-3.8-.9.6-2 1.3-3.1 1.7l-.7-.7c-1.1-1.1-2.1-1.9-3.8-1.9-3.3 0-5.7 2.5-5.7 5.7 0 .4 0 .7.1.9h-.1c-5.7 0-9.5-1.2-12.4-4.8-.5.9-1 1.8-1 2.9 0 2 1.3 3.7 2.9 4.8-1 0-2.1-.5-2.9-1 0 2.9 4 6.2 6.7 6.7-1 1-4.4.1-4.8 0 .8 2.3 3.2 3.8 5.7 3.8-2 1.6-4.4 2.4-7.2 2.4-.5 0-.9 0-1.4-.1 2.6 1.7 6.2 2.5 9.6 2.5 10.8 0 16.3-8.5 16.3-16.3v-1c1-.7 2-1.8 2.7-3z"/>
  <path d="M25 1C11.7 1 1 11.7 1 25s10.7 24 24 24 24-10.7 24-24S38.3 1 25 1zm0 43C14.5 44 6 35.5 6 25S14.5 6 25 6s19 8.5 19 19-8.5 19-19 19z"/>
</svg>
