<svg xmlns="http://www.w3.org/2000/svg" viewBox="0 0 50 50">
  <path d="M32 25c-1 0-3 2-7 2s-6-2-7-2c-1.1 0-2 .9-2 2 0 1 .6 1.5 1 1.7 1.2.7 5 2.3 5 2.3l-4.3 5.4s-.8.9-.8 1.6c0 1.1.9 2 2 2 1 0 1.5-.7 1.5-.7L25 34l4.5 5.3s.5.7 1.5.7c1.1 0 2-.9 2-2 0-.6-.8-1.6-.8-1.6L28 31s3.8-1.6 5-2.3c.4-.3 1-.7 1-1.7 0-1.1-.9-2-2-2zM25 10c-3.9 0-7 3.1-7 7s3.1 7 7 7 7-3.1 7-7-3.1-7-7-7zm0 10.5c-1.9 0-3.5-1.6-3.5-3.5s1.6-3.5 3.5-3.5 3.5 1.6 3.5 3.5-1.6 3.5-3.5 3.5z"/>
  <path d="M25 1C11.7 1 1 11.7 1 25s10.7 24 24 24 24-10.7 24-24S38.3 1 25 1zm0 43C14.5 44 6 35.5 6 25S14.5 6 25 6s19 8.5 19 19-8.5 19-19 19z"/>
</svg>
