<svg xmlns="http://www.w3.org/2000/svg" viewBox="0 0 50 50">
  <path d="M39.7 19s-.3-2.1-1.2-3c-1.1-1.2-2.4-1.2-3-1.3-4.2-.2-10.5-.2-10.5-.2s-6.3 0-10.5.3c-.6.1-1.9.1-3 1.3-.9.9-1.2 3-1.2 3s-.3 2-.3 4.4v3c0 2.4.3 4.5.3 4.5s.3 2.1 1.2 3c1.1 1.2 2.6 1.2 3.3 1.3 2.4.2 10.2.2 10.2.2s6.3.1 10.5-.2c.6-.1 1.9-.1 3-1.3.9-.9 1.2-3 1.2-3s.3-2.1.3-4.5v-3c0-2.4-.3-4.5-.3-4.5zM21 29v-8l8 4-8 4z"/>
  <path d="M25 1C11.7 1 1 11.7 1 25s10.7 24 24 24 24-10.7 24-24S38.3 1 25 1zm0 43C14.5 44 6 35.5 6 25S14.5 6 25 6s19 8.5 19 19-8.5 19-19 19z"/>
</svg>
