<svg xmlns="http://www.w3.org/2000/svg" viewBox="0 0 48 48"><title>thumbs-up</title><circle cx="7.5" cy="39.5" r="1.5" fill="#fecc00"/><path d="M46,31a4,4,0,0,0-1-2.6A4,4,0,0,0,43,21H28s3-3.4,3-10c0,0,0-5-3-8a3.8,3.8,0,0,0-3-1s-2.5-.3-3,3v5L14.4,21,13,23h0a13.4,13.4,0,0,0-3,8,62.5,62.5,0,0,0,1.4,11.4l.2.6,1,2a5.5,5.5,0,0,0,4,2H40a4,4,0,0,0,3-6.6,4,4,0,0,0,1-6A4,4,0,0,0,46,31Zm-2-4.3-2,1.2,1.5,1.8a2,2,0,0,1-.5,3l-2,1.2,1.5,1.8a2,2,0,0,1-.5,3l-2,1.2,1.5,1.8A2,2,0,0,1,40,45H16.7a3.5,3.5,0,0,1-3.3-2.9A62,62,0,0,1,12,31a11.2,11.2,0,0,1,2.5-6.7v-.2L24,10.6V5.2c.1-.5.3-1.2.9-1.2a2.8,2.8,0,0,1,1.6.3h.1C28.9,6.8,29,11,29,11c0,5.7-2.5,8.6-2.5,8.7L23.6,23H43a2,2,0,0,1,2,2A2,2,0,0,1,44,26.7Z" fill="#84c240"/><path d="M6,43c-.8,0-3-3.4-3-10S5.2,23,6,23h7l1.4-2H6c-2.8,0-5,5.4-5,12S3.2,45,6,45h6.6l-1-2Z" fill="#fecc00"/></svg>