<svg xmlns="http://www.w3.org/2000/svg" viewBox="0 0 48 48"><title>wallet</title><path d="M14.4,13l11-4h0L31,7h0L33,6.3h0l1.1,2.9L35.5,13h2.1L36.1,9h0l-.7-2-.9-2.3a1,1,0,0,0-1.3-.6L25.2,7,8.6,13Z" fill="#fecc00"/><path d="M43,13V11a4,4,0,0,0-4-4H35.4l.7,2H39a2,2,0,0,1,2,2v2H5A2,2,0,0,1,5,9H19.7l-11,4L25.2,7H5a4,4,0,0,0-4,4V40a5,5,0,0,0,5,5H42a5,5,0,0,0,5-5V17A4,4,0,0,0,43,13Zm2,18H41a2,2,0,0,1,0-4h4Zm0-6H41a4,4,0,0,0,0,8h4v7a3,3,0,0,1-3,3H6a3,3,0,0,1-3-3V14.4A4,4,0,0,0,5,15H43a2,2,0,0,1,2,2Z" fill="#84c240"/><rect x="41" y="28" width="2" height="2" fill="#84c240"/></svg>